<svg width="41" height="41" viewBox="0 0 41 41" fill="none" xmlns="http://www.w3.org/2000/svg">
<path d="M9.94531 20.3966C9.94531 17.0253 12.0194 14.043 15.1305 14.043C18.2416 14.043 20.1859 16.8956 20.1859 20.3966C20.1859 23.768 18.1118 26.7503 15.0007 26.7503C11.8896 26.6206 9.94531 23.768 9.94531 20.3966ZM18.76 20.3966C18.76 17.6736 17.3341 15.3396 15.0007 15.3396C12.6674 15.3396 11.2416 17.6736 11.2416 20.3966C11.2416 23.1196 12.6674 25.4536 15.0007 25.4536C17.3341 25.4536 18.76 23.1196 18.76 20.3966Z" fill="#25458F"/>
<path d="M26.1483 20.9153H22.5186V19.7483H26.1483V16.1177H27.4446V19.7483H31.0741V20.9153H27.4446V24.546H26.1483V20.9153Z" fill="#25458F"/>
<path d="M20.4447 40.7544C9.16694 40.7544 0.0927734 31.6777 0.0927734 20.3967C0.0927734 9.11573 9.16694 0.0390625 20.4447 0.0390625C31.7225 0.0390625 40.7965 9.11573 40.7965 20.3967C40.7965 31.5481 31.7225 40.7544 20.4447 40.7544ZM20.4447 0.946726C9.68546 0.946726 1.00028 9.6344 1.00028 20.3967C1.00028 31.1591 9.68546 39.8467 20.4447 39.8467C31.204 39.8467 39.8892 31.1591 39.8892 20.3967C39.8892 9.6344 31.204 0.946726 20.4447 0.946726Z" fill="#25458F"/>
</svg>
