<svg width="64" height="209" viewBox="0 0 64 209" fill="none" xmlns="http://www.w3.org/2000/svg">
<path d="M1.51958 198.377C1.03521 198.112 0.857639 197.504 1.12297 197.02L5.44681 189.126C5.71215 188.642 6.3199 188.464 6.80428 188.73C7.28865 188.995 7.46622 189.603 7.20088 190.087L3.35747 197.103L10.3737 200.947C10.8581 201.212 11.0357 201.82 10.7704 202.304C10.505 202.789 9.89727 202.966 9.4129 202.701L1.51958 198.377ZM61.7162 97.5L62.7135 97.4272H62.7135L61.7162 97.5ZM1.94058 2.82888C1.4828 2.51992 1.36216 1.89836 1.67112 1.44058C1.98008 0.982799 2.60164 0.862157 3.05942 1.17112L1.94058 2.82888ZM3.86877 1.71913C4.32561 2.02948 4.44436 2.65141 4.13401 3.10825C3.82366 3.56508 3.20173 3.68383 2.74489 3.37348L3.86877 1.71913ZM14.6156 11.9893C14.1811 11.6484 14.1052 11.0198 14.4461 10.5853C14.7869 10.1508 15.4156 10.0749 15.8501 10.4158L14.6156 11.9893ZM17.4008 11.647C17.8313 11.9929 17.8998 12.6224 17.5539 13.0529C17.2079 13.4834 16.5785 13.5519 16.148 13.206L17.4008 11.647ZM27.0885 22.9186C26.6955 22.5305 26.6915 21.8974 27.0795 21.5044C27.4676 21.1114 28.1007 21.1074 28.4937 21.4954L27.0885 22.9186ZM29.8908 22.8959C30.2778 23.2899 30.2722 23.9231 29.8782 24.3101C29.4842 24.6971 28.8511 24.6915 28.4641 24.2975L29.8908 22.8959ZM38.0485 35.3185C37.7131 34.8797 37.7969 34.2521 38.2358 33.9168C38.6746 33.5814 39.3022 33.6653 39.6375 34.1041L38.0485 35.3185ZM40.8278 35.69C41.1554 36.1346 41.0605 36.7606 40.6159 37.0883C40.1713 37.4159 39.5453 37.321 39.2177 36.8764L40.8278 35.69ZM47.0644 49.1778C46.7997 48.693 46.9781 48.0855 47.4629 47.8209C47.9476 47.5562 48.5551 47.7346 48.8198 48.2194L47.0644 49.1778ZM49.7545 49.9692C50.0102 50.4587 49.8208 51.0629 49.3313 51.3186C48.8418 51.5744 48.2376 51.3849 47.9819 50.8954L49.7545 49.9692ZM53.8442 64.2531C53.6566 63.7337 53.9257 63.1605 54.4451 62.9729C54.9646 62.7853 55.5377 63.0544 55.7253 63.5738L53.8442 64.2531ZM56.3852 65.4527C56.5636 65.9754 56.2846 66.5438 55.7619 66.7222C55.2392 66.9006 54.6709 66.6216 54.4924 66.0989L56.3852 65.4527ZM58.324 80.1816C58.2119 79.6408 58.5594 79.1115 59.1002 78.9994C59.641 78.8873 60.1703 79.2349 60.2824 79.7757L58.324 80.1816ZM60.6693 81.7195C60.773 82.2619 60.4172 82.7857 59.8747 82.8893C59.3322 82.9929 58.8085 82.6371 58.7049 82.0947L60.6693 81.7195ZM60.6435 96.5882C60.5995 96.0377 61.0102 95.5557 61.5607 95.5118C62.1112 95.4678 62.5932 95.8784 62.6372 96.4289L60.6435 96.5882ZM62.7859 98.4904C62.8208 99.0416 62.4022 99.5167 61.851 99.5515C61.2998 99.5863 60.8247 99.1677 60.7899 98.6166L62.7859 98.4904ZM60.614 114.164C60.6619 113.614 61.1467 113.207 61.6969 113.254C62.2471 113.302 62.6543 113.787 62.6064 114.337L60.614 114.164ZM62.4021 116.437C62.3431 116.986 61.85 117.384 61.3009 117.325C60.7518 117.265 60.3546 116.772 60.4136 116.223L62.4021 116.437ZM57.5696 131.505C57.7121 130.972 58.2601 130.655 58.7937 130.797C59.3273 130.94 59.6444 131.488 59.5019 132.021L57.5696 131.505ZM58.9357 134.058C58.7823 134.589 58.2279 134.895 57.6973 134.741C57.1668 134.588 56.861 134.034 57.0143 133.503L58.9357 134.058ZM51.5732 148.065C51.8051 147.564 52.3994 147.346 52.9007 147.578C53.4019 147.809 53.6203 148.404 53.3884 148.905L51.5732 148.065ZM52.483 150.812C52.2411 151.308 51.6426 151.515 51.1461 151.273C50.6495 151.031 50.4431 150.432 50.685 149.936L52.483 150.812ZM42.8516 163.37C43.1645 162.915 43.787 162.8 44.2421 163.112C44.6972 163.425 44.8125 164.048 44.4996 164.503L42.8516 163.37ZM43.2845 166.234C42.9626 166.682 42.3379 166.785 41.889 166.463C41.4402 166.142 41.3373 165.517 41.6592 165.068L43.2845 166.234ZM31.6736 176.984C32.0597 176.589 32.6929 176.582 33.0877 176.968C33.4826 177.354 33.4897 177.988 33.1036 178.382L31.6736 176.984ZM31.6131 179.875C31.2187 180.262 30.5856 180.256 30.1989 179.861C29.8123 179.467 29.8185 178.834 30.2129 178.447L31.6131 179.875ZM18.2501 188.345C18.7057 188.033 19.3281 188.149 19.6403 188.604C19.9525 189.06 19.8363 189.682 19.3807 189.995L18.2501 188.345ZM17.6197 191.167C17.1559 191.467 16.5368 191.335 16.2369 190.871C15.937 190.407 16.0698 189.788 16.5336 189.488L17.6197 191.167ZM2.68457 196.245C3.21076 196.078 3.77331 196.368 3.94105 196.894C4.10879 197.421 3.81821 197.983 3.29201 198.151L2.68457 196.245ZM3.05942 1.17112C3.32814 1.35247 3.59794 1.53514 3.86877 1.71913L2.74489 3.37348C2.4758 3.19068 2.20768 3.00916 1.94058 2.82888L3.05942 1.17112ZM15.8501 10.4158C16.3662 10.8207 16.8832 11.231 17.4008 11.647L16.148 13.206C15.6366 12.7951 15.1257 12.3896 14.6156 11.9893L15.8501 10.4158ZM28.4937 21.4954C28.9608 21.9566 29.4266 22.4234 29.8908 22.8959L28.4641 24.2975C28.0071 23.8324 27.5485 23.3727 27.0885 22.9186L28.4937 21.4954ZM39.6375 34.1041C40.0372 34.627 40.434 35.1556 40.8278 35.69L39.2177 36.8764C38.8309 36.3515 38.4411 35.8323 38.0485 35.3185L39.6375 34.1041ZM48.8198 48.2194C49.1352 48.7971 49.4468 49.3804 49.7545 49.9692L47.9819 50.8954C47.6799 50.3174 47.374 49.7449 47.0644 49.1778L48.8198 48.2194ZM55.7253 63.5738C55.9496 64.1949 56.1696 64.8212 56.3852 65.4527L54.4924 66.0989C54.2806 65.4784 54.0645 64.8632 53.8442 64.2531L55.7253 63.5738ZM60.2824 79.7757C60.4157 80.4189 60.5447 81.0668 60.6693 81.7195L58.7049 82.0947C58.5822 81.4523 58.4552 80.8146 58.324 80.1816L60.2824 79.7757ZM62.6372 96.4289C62.6637 96.7606 62.6891 97.0934 62.7135 97.4272L60.7188 97.5728C60.6948 97.2436 60.6697 96.9154 60.6435 96.5882L62.6372 96.4289ZM62.7135 97.4272C62.7394 97.7822 62.7636 98.1367 62.7859 98.4904L60.7899 98.6166C60.768 98.2693 60.7443 97.9214 60.7188 97.5728L62.7135 97.4272ZM62.6064 114.337C62.5452 115.041 62.4771 115.741 62.4021 116.437L60.4136 116.223C60.4871 115.54 60.5539 114.854 60.614 114.164L62.6064 114.337ZM59.5019 132.021C59.3195 132.704 59.1307 133.383 58.9357 134.058L57.0143 133.503C57.2056 132.841 57.3908 132.175 57.5696 131.505L59.5019 132.021ZM53.3884 148.905C53.092 149.546 52.7901 150.181 52.483 150.812L50.685 149.936C50.9863 149.317 51.2824 148.694 51.5732 148.065L53.3884 148.905ZM44.4996 164.503C44.0987 165.086 43.6936 165.663 43.2845 166.234L41.6592 165.068C42.0606 164.508 42.4582 163.942 42.8516 163.37L44.4996 164.503ZM33.1036 178.382C32.6092 178.888 32.1122 179.386 31.6131 179.875L30.2129 178.447C30.702 177.967 31.189 177.48 31.6736 176.984L33.1036 178.382ZM19.3807 189.995C18.7933 190.397 18.2061 190.788 17.6197 191.167L16.5336 189.488C17.1049 189.119 17.6772 188.737 18.2501 188.345L19.3807 189.995ZM3.29201 198.151C2.95319 198.259 2.61597 198.362 2.28045 198.46L1.71956 196.54C2.03922 196.447 2.36092 196.348 2.68457 196.245L3.29201 198.151ZM1.03915 199.254C0.0704079 198.723 -0.284725 197.508 0.245937 196.539L8.89362 180.753C9.42429 179.784 10.6398 179.429 11.6085 179.959C12.5773 180.49 12.9324 181.705 12.4018 182.674L4.71493 196.707L18.7475 204.394C19.7162 204.924 20.0714 206.14 19.5407 207.109C19.01 208.077 17.7945 208.432 16.8258 207.902L1.03915 199.254ZM61.7162 97.5L63.7108 97.3543H63.7108L61.7162 97.5ZM1.38116 3.65777C0.465599 3.03985 0.224312 1.79672 0.842232 0.881157C1.46015 -0.0344024 2.70329 -0.275687 3.61884 0.342233L1.38116 3.65777ZM4.43072 0.891952C5.34439 1.51266 5.58189 2.75652 4.96119 3.67019C4.34048 4.58386 3.09662 4.82136 2.18295 4.20066L4.43072 0.891952ZM13.9983 12.7761C13.1293 12.0943 12.9775 10.8371 13.6593 9.96805C14.3411 9.09901 15.5983 8.94721 16.4673 9.629L13.9983 12.7761ZM18.0272 10.8675C18.8882 11.5594 19.0253 12.8183 18.3333 13.6793C17.6414 14.5403 16.3825 14.6774 15.5215 13.9855L18.0272 10.8675ZM26.3859 23.6302C25.5999 22.8541 25.5919 21.5878 26.3679 20.8018C27.144 20.0158 28.4103 20.0077 29.1963 20.7838L26.3859 23.6302ZM30.6042 22.1951C31.3782 22.9831 31.367 24.2494 30.579 25.0235C29.7911 25.7975 28.5248 25.7863 27.7507 24.9983L30.6042 22.1951ZM37.2539 35.9257C36.5832 35.0481 36.7509 33.793 37.6285 33.1222C38.5061 32.4515 39.7613 32.6192 40.432 33.4968L37.2539 35.9257ZM41.6328 35.0968C42.288 35.986 42.0984 37.2381 41.2091 37.8933C40.3199 38.5486 39.0679 38.3589 38.4126 37.4696L41.6328 35.0968ZM46.1867 49.657C45.6574 48.6875 46.0142 47.4725 46.9837 46.9432C47.9532 46.4139 49.1682 46.7707 49.6975 47.7402L46.1867 49.657ZM50.6408 49.5061C51.1523 50.4851 50.7733 51.6934 49.7943 52.2049C48.8154 52.7165 47.6071 52.3375 47.0956 51.3585L50.6408 49.5061ZM52.9036 64.5928C52.5285 63.5539 53.0666 62.4075 54.1055 62.0324C55.1444 61.6572 56.2907 62.1953 56.6659 63.2342L52.9036 64.5928ZM57.3316 65.1297C57.6884 66.175 57.1303 67.3117 56.085 67.6686C55.0396 68.0254 53.9029 67.4673 53.5461 66.422L57.3316 65.1297ZM57.3448 80.3845C57.1206 79.3029 57.8157 78.2444 58.8973 78.0202C59.9788 77.7961 61.0374 78.4911 61.2615 79.5727L57.3448 80.3845ZM61.6516 81.5319C61.8588 82.6168 61.1473 83.6643 60.0623 83.8715C58.9773 84.0788 57.9298 83.3672 57.7226 82.2822L61.6516 81.5319ZM59.6467 96.6679C59.5587 95.5668 60.38 94.6029 61.4811 94.5149C62.5821 94.427 63.546 95.2482 63.634 96.3493L59.6467 96.6679ZM63.7839 98.4274C63.8536 99.5297 63.0164 100.48 61.914 100.55C60.8117 100.619 59.8616 99.782 59.7919 98.6796L63.7839 98.4274ZM59.6177 114.077C59.7135 112.977 60.6832 112.162 61.7836 112.258C62.884 112.354 63.6985 113.324 63.6027 114.424L59.6177 114.077ZM63.3964 116.544C63.2783 117.642 62.2922 118.437 61.194 118.319C60.0957 118.201 59.3012 117.215 59.4194 116.116L63.3964 116.544ZM56.6034 131.247C56.8884 130.18 57.9845 129.546 59.0517 129.831C60.1189 130.116 60.753 131.212 60.4681 132.279L56.6034 131.247ZM59.8964 134.336C59.5897 135.397 58.4808 136.009 57.4197 135.702C56.3586 135.395 55.747 134.286 56.0536 133.225L59.8964 134.336ZM50.6656 147.645C51.1294 146.643 52.318 146.206 53.3205 146.67C54.323 147.134 54.7597 148.322 54.296 149.325L50.6656 147.645ZM53.382 151.25C52.8983 152.243 51.7012 152.656 50.7081 152.172C49.7151 151.688 49.3022 150.491 49.786 149.498L53.382 151.25ZM42.0275 162.803C42.6533 161.893 43.8985 161.663 44.8087 162.288C45.7189 162.914 45.9495 164.159 45.3237 165.07L42.0275 162.803ZM44.0971 166.816C43.4534 167.714 42.2039 167.92 41.3063 167.276C40.4087 166.632 40.2028 165.383 40.8465 164.485L44.0971 166.816ZM30.9586 176.285C31.7309 175.495 32.9971 175.481 33.7869 176.253C34.5766 177.026 34.5908 178.292 33.8186 179.082L30.9586 176.285ZM32.3132 180.589C31.5245 181.362 30.2582 181.35 29.4849 180.561C28.7116 179.773 28.7241 178.506 29.5128 177.733L32.3132 180.589ZM17.6848 187.52C18.5959 186.896 19.8407 187.128 20.4652 188.039C21.0896 188.95 20.8571 190.195 19.946 190.82L17.6848 187.52ZM18.1627 192.007C17.2352 192.607 15.997 192.341 15.3972 191.414C14.7974 190.486 15.063 189.248 15.9905 188.648L18.1627 192.007ZM2.38084 195.293C3.43324 194.957 4.55833 195.538 4.89381 196.591C5.22929 197.643 4.64812 198.768 3.59573 199.104L2.38084 195.293ZM3.61884 0.342233C3.88836 0.524135 4.159 0.707366 4.43072 0.891952L2.18295 4.20066C1.91474 4.01845 1.64746 3.8375 1.38116 3.65777L3.61884 0.342233ZM16.4673 9.629C16.9864 10.0363 17.5065 10.449 18.0272 10.8675L15.5215 13.9855C15.0133 13.5771 14.5055 13.174 13.9983 12.7761L16.4673 9.629ZM29.1963 20.7838C29.667 21.2485 30.1364 21.7189 30.6042 22.1951L27.7507 24.9983C27.2974 24.5368 26.8424 24.0808 26.3859 23.6302L29.1963 20.7838ZM40.432 33.4968C40.8352 34.0244 41.2355 34.5577 41.6328 35.0968L38.4126 37.4696C38.0293 36.9495 37.643 36.4349 37.2539 35.9257L40.432 33.4968ZM49.6975 47.7402C50.0158 48.3232 50.3303 48.9119 50.6408 49.5061L47.0956 51.3585C46.7964 50.7859 46.4934 50.2187 46.1867 49.657L49.6975 47.7402ZM56.6659 63.2342C56.8921 63.8608 57.1141 64.4926 57.3316 65.1297L53.5461 66.422C53.3361 65.807 53.122 65.1973 52.9036 64.5928L56.6659 63.2342ZM61.2615 79.5727C61.3959 80.2211 61.526 80.8741 61.6516 81.5319L57.7226 82.2822C57.6009 81.645 57.4749 81.0124 57.3448 80.3845L61.2615 79.5727ZM63.634 96.3493C63.6607 96.6833 63.6863 97.0182 63.7108 97.3543L59.7215 97.6457C59.6976 97.3187 59.6727 96.9927 59.6467 96.6679L63.634 96.3493ZM63.7108 97.3543C63.737 97.7126 63.7614 98.0703 63.7839 98.4274L59.7919 98.6796C59.7702 98.3356 59.7467 97.991 59.7215 97.6457L63.7108 97.3543ZM63.6027 114.424C63.5409 115.134 63.4721 115.841 63.3964 116.544L59.4194 116.116C59.4921 115.44 59.5583 114.76 59.6177 114.077L63.6027 114.424ZM60.4681 132.279C60.2839 132.969 60.0933 133.655 59.8964 134.336L56.0536 133.225C56.243 132.57 56.4264 131.911 56.6034 131.247L60.4681 132.279ZM54.296 149.325C53.9968 149.972 53.692 150.613 53.382 151.25L49.786 149.498C50.0844 148.885 50.3777 148.268 50.6656 147.645L54.296 149.325ZM45.3237 165.07C44.919 165.658 44.5101 166.24 44.0971 166.816L40.8465 164.485C41.2441 163.931 41.6379 163.37 42.0275 162.803L45.3237 165.07ZM33.8186 179.082C33.3192 179.592 32.8173 180.095 32.3132 180.589L29.5128 177.733C29.9968 177.258 30.4789 176.776 30.9586 176.285L33.8186 179.082ZM19.946 190.82C19.3513 191.227 18.7568 191.623 18.1627 192.007L15.9905 188.648C16.5543 188.284 17.1192 187.908 17.6848 187.52L19.946 190.82ZM3.59573 199.104C3.24932 199.214 2.90434 199.319 2.5609 199.42L1.43912 195.58C1.75084 195.489 2.06478 195.393 2.38084 195.293L3.59573 199.104Z" fill="#2A4891"/>
</svg>
