<svg width="43" height="145" viewBox="0 0 43 145" fill="none" xmlns="http://www.w3.org/2000/svg">
<path d="M41.4716 134.882C41.9586 134.621 42.1422 134.015 41.8817 133.528L37.6369 125.592C37.3764 125.105 36.7704 124.922 36.2834 125.182C35.7964 125.443 35.6128 126.049 35.8733 126.536L39.6465 133.59L32.5922 137.363C32.1053 137.624 31.9216 138.23 32.1821 138.717C32.4426 139.204 33.0486 139.387 33.5356 139.127L41.4716 134.882ZM2.99996 68L2.00243 67.9297L2.00243 67.9298L2.99996 68ZM41.5734 2.81923C42.0259 2.50252 42.1359 1.87899 41.8192 1.42654C41.5025 0.974088 40.8789 0.864054 40.4265 1.18077L41.5734 2.81923ZM39.6672 1.71712C39.2174 2.03768 39.1127 2.66213 39.4333 3.11186C39.7539 3.56159 40.3783 3.6663 40.828 3.34574L39.6672 1.71712ZM30.1813 12.0871C30.582 11.7071 30.5989 11.0742 30.2189 10.6734C29.8389 10.2726 29.2059 10.2558 28.8052 10.6358L30.1813 12.0871ZM27.457 11.9398C27.0639 12.3277 27.0597 12.9609 27.4477 13.354C27.8356 13.7471 28.4687 13.7513 28.8618 13.3634L27.457 11.9398ZM19.8574 23.7572C20.1842 23.312 20.0883 22.6862 19.6431 22.3593C19.198 22.0325 18.5721 22.1284 18.2452 22.5735L19.8574 23.7572ZM17.151 24.0989C16.834 24.5512 16.9438 25.1748 17.396 25.4917C17.8483 25.8087 18.4719 25.6989 18.7889 25.2467L17.151 24.0989ZM11.8814 37.1262C12.1173 36.6269 11.9038 36.0308 11.4044 35.7948C10.9051 35.5589 10.309 35.7724 10.0731 36.2718L11.8814 37.1262ZM9.2914 37.976C9.06685 38.4806 9.29387 39.0716 9.79845 39.2962C10.303 39.5207 10.8941 39.2937 11.1186 38.7891L9.2914 37.976ZM6.60868 51.7668C6.74627 51.2319 6.4242 50.6867 5.88933 50.5492C5.35446 50.4116 4.80932 50.7336 4.67173 51.2685L6.60868 51.7668ZM4.2234 53.0922C4.09728 53.6299 4.43093 54.168 4.96863 54.2941C5.50632 54.4203 6.04444 54.0866 6.17055 53.5489L4.2234 53.0922ZM4.06697 67.1458C4.11096 66.5953 3.70034 66.1133 3.14981 66.0693C2.59928 66.0253 2.11732 66.436 2.07333 66.9865L4.06697 67.1458ZM1.94019 68.9046C1.9086 69.456 2.32999 69.9286 2.88137 69.9602C3.43275 69.9918 3.90533 69.5704 3.93691 69.019L1.94019 68.9046ZM4.54002 83.1307C4.46058 82.5841 3.95312 82.2055 3.40658 82.2849C2.86004 82.3644 2.48138 82.8718 2.56082 83.4184L4.54002 83.1307ZM2.8667 85.3372C2.96113 85.8813 3.4788 86.2459 4.02295 86.1515C4.5671 86.057 4.93167 85.5394 4.83725 84.9952L2.8667 85.3372ZM8.67068 98.5855C8.46695 98.0722 7.88565 97.8212 7.37232 98.025C6.85898 98.2287 6.60801 98.81 6.81175 99.3233L8.67068 98.5855ZM7.55079 101.114C7.76844 101.621 8.35637 101.856 8.86396 101.639C9.37154 101.421 9.60659 100.833 9.38893 100.326L7.55079 101.114ZM16.252 112.675C15.9358 112.222 15.3124 112.111 14.8596 112.428C14.4068 112.744 14.2961 113.367 14.6123 113.82L16.252 112.675ZM15.7441 115.394C16.0727 115.838 16.6989 115.931 17.1428 115.603C17.5867 115.274 17.6802 114.648 17.3516 114.204L15.7441 115.394ZM26.9131 124.571C26.4949 124.21 25.8635 124.257 25.5027 124.675C25.142 125.093 25.1885 125.724 25.6067 126.085L26.9131 124.571ZM27.0997 127.331C27.5297 127.677 28.1592 127.61 28.5058 127.18C28.8524 126.75 28.7848 126.12 28.3548 125.773L27.0997 127.331ZM40.4221 132.763C39.8996 132.584 39.331 132.863 39.1522 133.385C38.9733 133.908 39.2519 134.476 39.7744 134.655L40.4221 132.763ZM40.4265 1.18077C40.1749 1.35688 39.9218 1.53566 39.6672 1.71712L40.828 3.34574C41.0779 3.16763 41.3264 2.99214 41.5734 2.81923L40.4265 1.18077ZM28.8052 10.6358C28.3555 11.0621 27.906 11.4968 27.457 11.9398L28.8618 13.3634C29.3012 12.9298 29.7411 12.5044 30.1813 12.0871L28.8052 10.6358ZM18.2452 22.5735C17.8773 23.0747 17.5124 23.5832 17.151 24.0989L18.7889 25.2467C19.1417 24.7431 19.498 24.2466 19.8574 23.7572L18.2452 22.5735ZM10.0731 36.2718C9.8077 36.8334 9.54706 37.4015 9.2914 37.976L11.1186 38.7891C11.3681 38.2285 11.6224 37.6742 11.8814 37.1262L10.0731 36.2718ZM4.67173 51.2685C4.51679 51.8708 4.36728 52.4787 4.2234 53.0922L6.17055 53.5489C6.31118 52.9493 6.45728 52.3553 6.60868 51.7668L4.67173 51.2685ZM2.07333 66.9865C2.0483 67.2997 2.02466 67.6141 2.00243 67.9297L3.99749 68.0703C4.01928 67.7609 4.04244 67.4528 4.06697 67.1458L2.07333 66.9865ZM2.00243 67.9298C1.97949 68.2555 1.95875 68.5805 1.94019 68.9046L3.93691 69.019C3.95498 68.7036 3.97516 68.3873 3.99749 68.0702L2.00243 67.9298ZM2.56082 83.4184C2.65446 84.0625 2.7565 84.7022 2.8667 85.3372L4.83725 84.9952C4.73017 84.3782 4.63101 83.7567 4.54002 83.1307L2.56082 83.4184ZM6.81175 99.3233C7.05109 99.9264 7.29755 100.523 7.55079 101.114L9.38893 100.326C9.14281 99.7516 8.90328 99.1716 8.67068 98.5855L6.81175 99.3233ZM14.6123 113.82C14.9846 114.353 15.3621 114.878 15.7441 115.394L17.3516 114.204C16.9805 113.703 16.6138 113.193 16.252 112.675L14.6123 113.82ZM25.6067 126.085C26.1029 126.513 26.6008 126.928 27.0997 127.331L28.3548 125.773C27.8735 125.385 27.3927 124.985 26.9131 124.571L25.6067 126.085ZM39.7744 134.655C40.0882 134.762 40.4001 134.863 40.71 134.957L41.29 133.043C41.0034 132.956 40.7141 132.863 40.4221 132.763L39.7744 134.655ZM41.9433 135.764C42.9173 135.243 43.2845 134.031 42.7635 133.057L34.2738 117.185C33.7528 116.211 32.5409 115.843 31.5669 116.364C30.5929 116.885 30.2257 118.097 30.7467 119.071L38.2931 133.18L24.1845 140.726C23.2105 141.247 22.8433 142.459 23.3643 143.433C23.8852 144.407 25.0972 144.774 26.0711 144.253L41.9433 135.764ZM2.99996 68L1.0049 67.8595H1.0049L2.99996 68ZM42.1469 3.63846C43.0518 3.00503 43.2719 1.75797 42.6384 0.853075C42.005 -0.0518234 40.7579 -0.271893 39.853 0.361536L42.1469 3.63846ZM39.0868 0.902808C38.1873 1.54393 37.9779 2.79282 38.619 3.69229C39.2601 4.59175 40.509 4.80118 41.4085 4.16005L39.0868 0.902808ZM30.8693 12.8128C31.6709 12.0528 31.7045 10.7869 30.9445 9.98534C30.1845 9.1838 28.9186 9.15013 28.1171 9.91014L30.8693 12.8128ZM26.7546 11.228C25.9684 12.0039 25.96 13.2702 26.7359 14.0564C27.5118 14.8426 28.7781 14.851 29.5643 14.0751L26.7546 11.228ZM20.6634 24.3491C21.3171 23.4587 21.1253 22.207 20.235 21.5533C19.3446 20.8995 18.0929 21.0914 17.4392 21.9817L20.6634 24.3491ZM16.332 23.525C15.6981 24.4296 15.9176 25.6768 16.8222 26.3107C17.7268 26.9446 18.9739 26.7251 19.6078 25.8205L16.332 23.525ZM12.7855 37.5534C13.2574 36.5547 12.8304 35.3626 11.8317 34.8907C10.833 34.4188 9.64082 34.8459 9.16893 35.8446L12.7855 37.5534ZM8.37777 37.5694C7.92869 38.5786 8.38272 39.7607 9.39188 40.2098C10.401 40.6589 11.5832 40.2048 12.0323 39.1957L8.37777 37.5694ZM7.57715 52.0159C7.85233 50.9461 7.2082 49.8559 6.13846 49.5807C5.06872 49.3055 3.97844 49.9496 3.70326 51.0194L7.57715 52.0159ZM3.24982 52.8639C2.99759 53.9393 3.66489 55.0155 4.74028 55.2677C5.81567 55.5199 6.89191 54.8526 7.14413 53.7773L3.24982 52.8639ZM5.06379 67.2255C5.15178 66.1244 4.33052 65.1605 3.22946 65.0725C2.1284 64.9845 1.16449 65.8058 1.0765 66.9068L5.06379 67.2255ZM0.941822 68.8475C0.87866 69.9502 1.72142 70.8954 2.82419 70.9585C3.92695 71.0217 4.87212 70.1789 4.93528 69.0762L0.941822 68.8475ZM5.52962 82.9868C5.37074 81.8938 4.35582 81.1364 3.26273 81.2953C2.16965 81.4542 1.41234 82.4691 1.57122 83.5622L5.52962 82.9868ZM1.88142 85.5081C2.07028 86.5965 3.10562 87.3256 4.19393 87.1367C5.28223 86.9479 6.01138 85.9125 5.82252 84.8242L1.88142 85.5081ZM9.60015 98.2166C9.19268 97.19 8.03008 96.688 7.00342 97.0955C5.97675 97.503 5.4748 98.6656 5.88228 99.6922L9.60015 98.2166ZM6.63172 101.508C7.06703 102.523 8.24287 102.993 9.25805 102.558C10.2732 102.123 10.7433 100.947 10.308 99.9315L6.63172 101.508ZM17.0718 112.102C16.4394 111.197 15.1926 110.975 14.287 111.608C13.3814 112.24 13.16 113.487 13.7924 114.393L17.0718 112.102ZM14.9403 115.989C15.5975 116.877 16.8499 117.064 17.7377 116.406C18.6255 115.749 18.8125 114.497 18.1553 113.609L14.9403 115.989ZM27.5663 123.814C26.73 123.092 25.4671 123.185 24.7456 124.021C24.024 124.858 24.1171 126.121 24.9534 126.842L27.5663 123.814ZM26.4721 128.109C27.3321 128.802 28.5912 128.667 29.2844 127.807C29.9775 126.947 29.8423 125.688 28.9823 124.995L26.4721 128.109ZM40.746 131.817C39.701 131.459 38.5638 132.016 38.2061 133.061C37.8483 134.106 38.4055 135.243 39.4505 135.601L40.746 131.817ZM39.853 0.361536C39.5991 0.539259 39.3437 0.719674 39.0868 0.902808L41.4085 4.16005C41.656 3.98362 41.9022 3.80976 42.1469 3.63846L39.853 0.361536ZM28.1171 9.91014C27.6627 10.341 27.2084 10.7802 26.7546 11.228L29.5643 14.0751C29.9988 13.6463 30.4339 13.2256 30.8693 12.8128L28.1171 9.91014ZM17.4392 21.9817C17.0669 22.4888 16.6977 23.0032 16.332 23.525L19.6078 25.8205C19.9564 25.3231 20.3084 24.8326 20.6634 24.3491L17.4392 21.9817ZM9.16893 35.8446C8.90033 36.413 8.63653 36.988 8.37777 37.5694L12.0323 39.1957C12.2786 38.642 12.5298 38.0946 12.7855 37.5534L9.16893 35.8446ZM3.70326 51.0194C3.54654 51.6286 3.39533 52.2434 3.24982 52.8639L7.14413 53.7773C7.28313 53.1846 7.42753 52.5975 7.57715 52.0159L3.70326 51.0194ZM1.0765 66.9068C1.05122 67.2232 1.02735 67.5408 1.0049 67.8595L4.99502 68.1405C5.01659 67.8343 5.03952 67.5293 5.06379 67.2255L1.0765 66.9068ZM1.0049 67.8595C0.981656 68.1896 0.960637 68.519 0.941822 68.8475L4.93528 69.0762C4.95309 68.7651 4.973 68.4532 4.99502 68.1405L1.0049 67.8595ZM1.57122 83.5622C1.66618 84.2155 1.76967 84.8642 1.88142 85.5081L5.82252 84.8242C5.71701 84.2162 5.61929 83.6037 5.52962 82.9868L1.57122 83.5622ZM5.88228 99.6922C6.12499 100.304 6.37491 100.909 6.63172 101.508L10.308 99.9315C10.0654 99.3659 9.82938 98.7942 9.60015 98.2166L5.88228 99.6922ZM13.7924 114.393C14.1701 114.933 14.5528 115.465 14.9403 115.989L18.1553 113.609C17.7897 113.115 17.4284 112.613 17.0718 112.102L13.7924 114.393ZM24.9534 126.842C25.458 127.278 25.9645 127.7 26.4721 128.109L28.9823 124.995C28.5098 124.614 28.0376 124.22 27.5663 123.814L24.9534 126.842ZM39.4505 135.601C39.7752 135.712 40.0984 135.817 40.4199 135.914L41.58 132.086C41.3051 132.003 41.0271 131.913 40.746 131.817L39.4505 135.601Z" fill="#2A4891"/>
</svg>
