<svg width="45" height="48" viewBox="0 0 45 48" fill="none" xmlns="http://www.w3.org/2000/svg">
<g clip-path="url(#clip0)">
<path d="M10.246 34.4512L6.78467 43.1402L12.7932 42.7625L16.7846 47.4474L20.2326 38.7923C16.4839 38.3364 13.0534 36.7835 10.246 34.4512Z" fill="#25458F"/>
<path d="M24.8416 38.7923L28.2892 47.4474L32.281 42.7625L38.2895 43.1402L34.8281 34.4512C32.0208 36.7835 28.5903 38.3364 24.8416 38.7923Z" fill="#25458F"/>
<path d="M22.5372 36.1915C31.9594 36.1915 39.6251 28.2208 39.6251 18.4233C39.6251 8.62576 31.9594 0.654663 22.5372 0.654663C13.1154 0.654663 5.44971 8.62576 5.44971 18.4229C5.44971 28.2204 13.1154 36.1915 22.5372 36.1915ZM22.5372 5.22534C29.5359 5.22534 35.2295 11.1458 35.2295 18.4233C35.2295 25.7004 29.5359 31.6209 22.5372 31.6209C15.5389 31.6209 9.84527 25.7004 9.84527 18.4229C9.84527 11.1458 15.5389 5.22534 22.5372 5.22534Z" fill="#25458F"/>
<path d="M20.7344 13.1548C20.417 13.2668 19.8477 13.4161 19.0264 13.6028C18.205 13.7708 17.561 13.8828 17.0944 13.9388L16.7864 11.9788C17.7944 11.7735 18.8397 11.4095 19.9224 10.8868C21.0237 10.3455 21.9197 9.78545 22.6104 9.20679H22.6384L24.8504 9.51479V24.9148L28.0424 25.2228V26.8748H17.3744V25.2228L20.7344 24.9428V13.1548Z" fill="#25458F"/>
</g>
<defs>
<clipPath id="clip0">
<rect width="45" height="46.7927" fill="white" transform="translate(0.000488281 0.654663)"/>
</clipPath>
</defs>
</svg>
