<svg width="777" height="20" viewBox="0 0 777 20" fill="none" xmlns="http://www.w3.org/2000/svg">
<path d="M0.962891 16.0096V0.579285H2.12955V14.4536L12.2407 0.579285H13.4073V16.0096H12.2407V2.13526L2.25919 16.0096H0.962891Z" fill="#25458F"/>
<path d="M17.6846 16.0096V4.72858H18.7216L23.2586 11.2119L27.7957 4.72858H28.8327V16.0096H27.7957V6.5439L23.2586 12.7679L18.7216 6.5439V16.0096H17.6846Z" fill="#25458F"/>
<path d="M37.6483 16.3986C36.0927 16.3986 34.7964 15.8799 33.7594 14.7129C32.7224 13.5459 32.0742 12.1195 32.0742 10.4339C32.0742 8.74821 32.5927 7.45157 33.6298 6.28457C34.6668 5.11757 35.9631 4.59888 37.389 4.59888C38.9446 4.59888 40.2409 5.11757 41.1483 6.28457C42.0557 7.45157 42.5742 8.87789 42.5742 10.5636C42.5742 10.6932 42.5742 10.9526 42.5742 10.9526H33.2409C33.3705 12.2492 33.7594 13.4162 34.6668 14.1942C35.5742 14.9722 36.4816 15.3612 37.6483 15.3612C39.0742 15.3612 40.3705 14.7129 41.5372 13.5459L42.3149 14.1942C41.0186 15.6206 39.4631 16.3986 37.6483 16.3986ZM33.3705 9.91522H41.5372C41.4075 8.61855 41.0186 7.58123 40.3705 6.80323C39.7223 6.02523 38.6853 5.50656 37.5187 5.50656C36.352 5.50656 35.4446 5.89556 34.6668 6.80323C33.889 7.58123 33.3705 8.61855 33.3705 9.91522Z" fill="#25458F"/>
<path d="M55.148 16.3986C53.5925 16.3986 52.2962 15.8799 51.3888 14.8426C50.3517 13.8052 49.8332 12.5086 49.7036 10.9526H46.9814V16.1392H45.9443V4.85822H46.9814V9.91522H49.7036C49.8332 8.35922 50.3517 7.06255 51.3888 6.02522C52.4258 4.98788 53.5925 4.46924 55.148 4.46924C56.8332 4.46924 58.1295 4.98789 59.0369 6.15489C60.074 7.32189 60.5925 8.74824 60.5925 10.3042C60.5925 11.9899 60.074 13.2866 59.0369 14.4536C58.1295 15.7502 56.8332 16.3986 55.148 16.3986ZM55.2777 15.3612C56.574 15.3612 57.611 14.8426 58.3888 13.9349C59.1666 13.0272 59.5555 11.8602 59.5555 10.4339C59.5555 9.00754 59.1666 7.84057 58.3888 6.9329C57.611 6.02523 56.574 5.50656 55.2777 5.50656C53.9814 5.50656 52.9443 6.02523 52.1666 6.9329C51.3888 7.84057 50.9999 9.00754 50.9999 10.4339C50.9999 11.8602 51.3888 13.0272 52.1666 13.9349C52.9443 14.8426 53.9814 15.3612 55.2777 15.3612Z" fill="#25458F"/>
<path d="M66.8149 16.0096V5.63624H62.5371V4.59888H72.1297V5.63624H67.8519V16.0096H66.8149Z" fill="#25458F"/>
<path d="M79.9075 16.3986C78.2224 16.3986 76.9261 15.8799 75.7594 14.7129C74.5927 13.5459 74.0742 12.1196 74.0742 10.5636C74.0742 8.87791 74.5927 7.58127 75.7594 6.41427C76.9261 5.24727 78.2224 4.72858 79.7779 4.72858C81.5927 4.72858 83.0187 5.37692 84.315 6.80325L83.5372 7.58126C82.3705 6.28459 81.0742 5.76593 79.7779 5.76593C78.4816 5.76593 77.4446 6.28457 76.5372 7.19224C75.6298 8.09991 75.2409 9.26692 75.2409 10.6933C75.2409 11.9899 75.6298 13.1569 76.5372 14.1943C77.4446 15.1019 78.4816 15.6206 79.7779 15.6206C81.0742 15.6206 82.3705 14.9722 83.5372 13.6756L84.315 14.3239C83.1483 15.6206 81.5927 16.3986 79.9075 16.3986Z" fill="#25458F"/>
<path d="M86.6484 16.0096L90.1485 11.4713C89.241 11.3416 88.4633 10.9526 87.8151 10.3043C87.167 9.65593 86.9077 9.00758 86.9077 8.09992C86.9077 7.06258 87.2966 6.28459 88.0744 5.63626C88.8521 4.98793 89.7596 4.72858 91.0559 4.72858H96.1114V16.0096H95.0744V11.7306H91.3151L87.9447 16.0096H86.6484V16.0096ZM91.1855 10.6932H94.9447V5.63626H91.1855C90.1484 5.63626 89.5003 5.89559 88.8522 6.28459C88.3336 6.67359 88.0744 7.32192 88.0744 8.09992C88.0744 8.87791 88.3336 9.52624 88.9818 9.91524C89.5003 10.5636 90.2781 10.6932 91.1855 10.6932Z" fill="#25458F"/>
<path d="M106.87 16.0096V4.72858H116.203V16.0096H115.166V5.63626H107.907V16.0096H106.87Z" fill="#25458F"/>
<path d="M120.352 19.6402V4.85823H121.389V7.32189C122.555 5.50655 124.111 4.59888 126.055 4.59888C127.481 4.59888 128.777 5.11757 129.944 6.28457C131.111 7.3219 131.629 8.74822 131.629 10.5636C131.629 12.3789 131.111 13.8052 129.944 14.8426C128.777 15.8799 127.611 16.5282 126.055 16.5282C124.111 16.5282 122.555 15.6206 121.389 13.8052V19.7699H120.352V19.6402ZM125.926 15.2316C127.222 15.2316 128.259 14.8426 129.037 13.9349C129.815 13.0272 130.333 11.8602 130.333 10.4339C130.333 9.00755 129.944 7.84057 129.037 6.9329C128.129 6.02523 127.092 5.63623 125.926 5.63623C124.759 5.63623 123.592 6.15491 122.685 7.06258C121.777 7.97024 121.259 9.13722 121.259 10.5636C121.259 11.9899 121.777 13.1569 122.685 14.0646C123.592 14.8426 124.759 15.2316 125.926 15.2316Z" fill="#25458F"/>
<path d="M144.074 14.5832C142.908 15.7502 141.611 16.2689 139.926 16.2689C138.241 16.2689 136.945 15.7502 135.778 14.5832C134.741 13.4162 134.093 11.9899 134.093 10.4339C134.093 8.87788 134.611 7.45157 135.778 6.28457C136.945 5.11757 138.241 4.59888 139.926 4.59888C141.611 4.59888 142.908 5.11757 144.074 6.28457C145.111 7.45157 145.759 8.87788 145.759 10.4339C145.759 11.9899 145.241 13.4162 144.074 14.5832ZM139.926 15.3612C141.222 15.3612 142.259 14.8426 143.167 13.9349C144.074 13.0272 144.463 11.8602 144.463 10.4339C144.463 9.13722 143.945 7.97024 143.167 6.9329C142.259 6.02524 141.222 5.50656 139.926 5.50656C138.63 5.50656 137.593 6.02524 136.685 6.9329C135.778 7.84057 135.389 9.00755 135.389 10.4339C135.389 11.7306 135.778 12.8976 136.685 13.9349C137.593 14.8426 138.63 15.3612 139.926 15.3612Z" fill="#25458F"/>
<path d="M151.851 16.0096V5.63624H147.703V4.59888H157.296V5.63624H153.018V16.0096H151.851Z" fill="#25458F"/>
<path d="M159.889 16.0096V4.72858H160.926V14.5832L168.574 4.72858H169.611V16.0096H168.574V6.15492L160.926 16.0096H159.889Z" fill="#25458F"/>
<path d="M173.889 16.0096V4.72858H179.074C180.241 4.72858 181.018 4.98792 181.666 5.50658C182.315 6.02525 182.703 6.67359 182.703 7.58126C182.703 8.74826 182.055 9.65592 180.759 10.1746C181.537 10.3043 182.185 10.6932 182.574 11.2119C183.092 11.7306 183.222 12.2492 183.222 13.0272C183.222 13.9349 182.833 14.7129 182.055 15.2316C181.278 15.7502 180.37 16.0096 179.074 16.0096H173.889V16.0096ZM174.926 9.78556H178.815C179.592 9.78556 180.241 9.65591 180.759 9.26691C181.278 8.87791 181.537 8.35926 181.537 7.71093C181.537 7.19226 181.278 6.67359 180.889 6.28459C180.37 5.89559 179.722 5.76593 178.944 5.76593H174.926V9.78556ZM174.926 15.1019H179.074C179.981 15.1019 180.759 14.8426 181.278 14.4536C181.796 14.0646 182.055 13.5459 182.055 12.7679C182.055 12.1196 181.796 11.6009 181.148 11.2119C180.629 10.8229 179.722 10.6932 178.685 10.6932H174.796V15.1019H174.926Z" fill="#25458F"/>
<path d="M195.796 14.5832C194.629 15.7502 193.333 16.2689 191.648 16.2689C189.963 16.2689 188.666 15.7502 187.5 14.5832C186.463 13.4162 185.814 11.9899 185.814 10.4339C185.814 8.87788 186.333 7.45157 187.5 6.28457C188.666 5.11757 189.963 4.59888 191.648 4.59888C193.333 4.59888 194.629 5.11757 195.796 6.28457C196.833 7.45157 197.481 8.87788 197.481 10.4339C197.481 11.9899 196.963 13.4162 195.796 14.5832ZM191.777 15.3612C193.074 15.3612 194.111 14.8426 195.018 13.9349C195.926 13.0272 196.314 11.8602 196.314 10.4339C196.314 9.13722 195.796 7.97024 195.018 6.9329C194.111 6.02524 193.074 5.50656 191.777 5.50656C190.481 5.50656 189.444 6.02524 188.537 6.9329C187.629 7.84057 187.24 9.00755 187.24 10.4339C187.24 11.7306 187.629 12.8976 188.537 13.9349C189.314 14.8426 190.481 15.3612 191.777 15.3612Z" fill="#25458F"/>
<path d="M200.852 16.0096V4.72858H210.185V16.0096H209.148V5.63626H201.889V16.0096H200.852Z" fill="#25458F"/>
<path d="M223.537 14.5832C222.37 15.7502 221.074 16.2689 219.389 16.2689C217.704 16.2689 216.408 15.7502 215.241 14.5832C214.204 13.4162 213.556 11.9899 213.556 10.4339C213.556 8.87788 214.074 7.45157 215.241 6.28457C216.408 5.11757 217.704 4.59888 219.389 4.59888C221.074 4.59888 222.37 5.11757 223.537 6.28457C224.574 7.45157 225.222 8.87788 225.222 10.4339C225.222 11.9899 224.574 13.4162 223.537 14.5832ZM219.389 15.3612C220.685 15.3612 221.722 14.8426 222.63 13.9349C223.537 13.0272 223.926 11.8602 223.926 10.4339C223.926 9.13722 223.408 7.97024 222.63 6.9329C221.722 6.02524 220.685 5.50656 219.389 5.50656C218.093 5.50656 217.056 6.02524 216.148 6.9329C215.241 7.84057 214.852 9.00755 214.852 10.4339C214.852 11.7306 215.241 12.8976 216.148 13.9349C217.056 14.8426 218.093 15.3612 219.389 15.3612Z" fill="#25458F"/>
<path d="M228.463 16.0096V4.72858H229.5V11.9899L236.5 4.72858H237.926L233 9.78556L238.056 16.0096H236.63L232.222 10.5636L229.5 13.2866V16.0096H228.463V16.0096Z" fill="#25458F"/>
<path d="M244.277 16.3986C242.981 16.3986 241.944 16.1393 241.166 15.4909C240.389 14.8426 239.87 13.9349 239.87 12.8976C239.87 11.7306 240.259 10.8229 241.166 10.1746C242.074 9.52624 243.24 9.13721 244.796 9.13721C246.092 9.13721 247.259 9.26691 248.555 9.65591V9.13721C248.555 7.97021 248.296 7.19221 247.518 6.54388C246.87 5.89554 245.963 5.63623 244.796 5.63623C243.629 5.63623 242.463 5.89554 241.296 6.54388L240.907 5.63623C242.333 4.9879 243.629 4.59888 244.926 4.59888C246.481 4.59888 247.648 4.98788 248.426 5.89554C249.203 6.67355 249.592 7.71088 249.592 9.13721V16.1393H248.555V14.1942C247.518 15.6206 246.092 16.3986 244.277 16.3986ZM244.277 15.3612C245.444 15.3612 246.481 14.9722 247.259 14.3239C248.037 13.6755 248.555 12.8976 248.555 11.8602V10.5636C247.259 10.1746 245.963 10.0449 244.666 10.0449C243.5 10.0449 242.592 10.3042 241.944 10.8229C241.296 11.3416 241.037 11.9899 241.037 12.7679C241.037 13.5459 241.296 14.1942 241.944 14.7129C242.592 15.1019 243.37 15.3612 244.277 15.3612Z" fill="#25458F"/>
<path d="M257.111 16.2689C255.426 16.2689 253.871 15.7502 252.574 14.5832L253.222 13.6756C254.389 14.7129 255.685 15.2316 257.111 15.2316C257.889 15.2316 258.667 14.9722 259.185 14.5832C259.834 14.1942 260.093 13.5459 260.093 12.8976C260.093 12.2492 259.834 11.7306 259.315 11.3416C258.796 10.9526 258.019 10.6932 256.982 10.6932H255.426V9.65591H256.982C257.759 9.65591 258.408 9.39658 259.056 9.00758C259.574 8.61858 259.834 8.09989 259.834 7.45156C259.834 6.80323 259.574 6.41422 259.056 6.02522C258.537 5.63622 257.889 5.50656 257.111 5.50656C255.685 5.50656 254.519 5.89555 253.611 6.67355L252.963 5.76591C254.13 4.85824 255.556 4.46924 257.111 4.46924C258.278 4.46924 259.185 4.72854 259.963 5.24721C260.611 5.76588 261 6.54389 261 7.45156C261 8.74823 260.352 9.52623 259.185 10.0449C260.611 10.5636 261.259 11.4712 261.259 12.7679C261.259 13.6756 260.871 14.4536 260.093 15.1019C259.315 16.0096 258.278 16.2689 257.111 16.2689Z" fill="#25458F"/>
<path d="M268 16.3986C266.704 16.3986 265.667 16.1393 264.889 15.4909C264.111 14.8426 263.593 13.9349 263.593 12.8976C263.593 11.7306 263.982 10.8229 264.889 10.1746C265.796 9.52624 266.963 9.13721 268.519 9.13721C269.815 9.13721 270.982 9.26691 272.278 9.65591V9.13721C272.278 7.97021 272.019 7.19221 271.241 6.54388C270.593 5.89554 269.685 5.63623 268.519 5.63623C267.352 5.63623 266.185 5.89554 265.019 6.54388L264.63 5.63623C266.056 4.9879 267.352 4.59888 268.648 4.59888C270.204 4.59888 271.371 4.98788 272.148 5.89554C272.926 6.67355 273.315 7.71088 273.315 9.13721V16.1393H272.278V14.1942C271.241 15.6206 269.815 16.3986 268 16.3986ZM268.13 15.3612C269.296 15.3612 270.334 14.9722 271.111 14.3239C271.889 13.6755 272.408 12.8976 272.408 11.8602V10.5636C271.111 10.1746 269.815 10.0449 268.519 10.0449C267.352 10.0449 266.445 10.3042 265.796 10.8229C265.148 11.3416 264.889 11.9899 264.889 12.7679C264.889 13.5459 265.148 14.1942 265.796 14.7129C266.315 15.1019 267.093 15.3612 268.13 15.3612Z" fill="#25458F"/>
<path d="M277.333 16.0096V4.72858H278.37V9.78556H285.889V4.72858H286.926V16.0096H285.889V10.6932H278.37V16.0096H277.333Z" fill="#25458F"/>
<path d="M291.074 16.0096V4.72858H292.111V14.5832L299.759 4.72858H300.796V16.0096H299.759V6.15492L292.111 16.0096H291.074Z" fill="#25458F"/>
<path d="M304.037 16.0096L307.537 11.4713C306.63 11.3416 305.852 10.9526 305.204 10.3043C304.556 9.65593 304.296 9.00758 304.296 8.09992C304.296 7.06258 304.685 6.28459 305.463 5.63626C306.241 4.98793 307.148 4.72858 308.445 4.72858H313.5V16.0096H312.463V11.7306H308.704L305.333 16.0096H304.037V16.0096ZM308.704 10.6932H312.463V5.63626H308.704C307.667 5.63626 307.019 5.89559 306.37 6.28459C305.852 6.67359 305.593 7.32192 305.593 8.09992C305.593 8.87791 305.852 9.52624 306.5 9.91524C307.019 10.5636 307.796 10.6932 308.704 10.6932Z" fill="#25458F"/>
<path d="M317.389 16.0096V14.0646H318.815V16.0096H317.389Z" fill="#25458F"/>
<path d="M329.703 16.0096V0.579285H341.629V16.0096H340.462V1.6166H330.74V16.0096H329.703Z" fill="#25458F"/>
<path d="M346.037 19.6402V4.85823H347.074V7.32189C348.241 5.50655 349.796 4.59888 351.741 4.59888C353.167 4.59888 354.463 5.11757 355.63 6.28457C356.796 7.3219 357.315 8.74822 357.315 10.5636C357.315 12.3789 356.796 13.8052 355.63 14.8426C354.463 15.8799 353.296 16.5282 351.741 16.5282C349.796 16.5282 348.241 15.6206 347.074 13.8052V19.7699H346.037V19.6402ZM351.611 15.2316C352.907 15.2316 353.945 14.8426 354.722 13.9349C355.5 13.0272 356.019 11.8602 356.019 10.4339C356.019 9.00755 355.63 7.84057 354.722 6.9329C353.815 6.02523 352.778 5.63623 351.611 5.63623C350.445 5.63623 349.278 6.15491 348.37 7.06258C347.463 7.97024 346.945 9.13722 346.945 10.5636C346.945 11.9899 347.463 13.1569 348.37 14.0646C349.278 14.8426 350.445 15.2316 351.611 15.2316Z" fill="#25458F"/>
<path d="M369.759 14.5832C368.592 15.7502 367.296 16.2689 365.611 16.2689C363.925 16.2689 362.629 15.7502 361.463 14.5832C360.425 13.4162 359.777 11.9899 359.777 10.4339C359.777 8.87788 360.296 7.45157 361.463 6.28457C362.629 5.11757 363.925 4.59888 365.611 4.59888C367.296 4.59888 368.592 5.11757 369.759 6.28457C370.796 7.45157 371.444 8.87788 371.444 10.4339C371.444 11.9899 370.796 13.4162 369.759 14.5832ZM365.611 15.3612C366.907 15.3612 367.944 14.8426 368.851 13.9349C369.759 13.0272 370.148 11.8602 370.148 10.4339C370.148 9.13722 369.629 7.97024 368.851 6.9329C367.944 6.02524 366.907 5.50656 365.611 5.50656C364.314 5.50656 363.277 6.02524 362.37 6.9329C361.463 7.84057 361.074 9.00755 361.074 10.4339C361.074 11.7306 361.463 12.8976 362.37 13.9349C363.277 14.8426 364.314 15.3612 365.611 15.3612Z" fill="#25458F"/>
<path d="M374.814 16.0096V4.72858H375.851V11.9899L382.851 4.72858H384.277L379.351 9.78556L384.407 16.0096H382.981L378.574 10.5636L375.851 13.2866V16.0096H374.814Z" fill="#25458F"/>
<path d="M396.203 14.5832C395.037 15.7502 393.74 16.2689 392.055 16.2689C390.37 16.2689 389.074 15.7502 387.907 14.5832C386.87 13.4162 386.222 11.9899 386.222 10.4339C386.222 8.87788 386.74 7.45157 387.907 6.28457C389.074 5.11757 390.37 4.59888 392.055 4.59888C393.74 4.59888 395.037 5.11757 396.203 6.28457C397.24 7.45157 397.888 8.87788 397.888 10.4339C397.888 11.9899 397.37 13.4162 396.203 14.5832ZM392.055 15.3612C393.351 15.3612 394.388 14.8426 395.296 13.9349C396.203 13.0272 396.592 11.8602 396.592 10.4339C396.592 9.13722 396.074 7.97024 395.296 6.9329C394.388 6.02524 393.351 5.50656 392.055 5.50656C390.759 5.50656 389.722 6.02524 388.814 6.9329C387.907 7.84057 387.518 9.00755 387.518 10.4339C387.518 11.7306 387.907 12.8976 388.814 13.9349C389.722 14.8426 390.759 15.3612 392.055 15.3612Z" fill="#25458F"/>
<path d="M401.259 16.0096V4.72858H402.296V9.78556H409.814V4.72858H410.851V16.0096H409.814V10.6932H402.296V16.0096H401.259Z" fill="#25458F"/>
<path d="M419.926 16.3986C418.241 16.3986 416.945 15.8799 415.778 14.7129C414.611 13.5459 414.093 12.1196 414.093 10.5636C414.093 8.87791 414.611 7.58127 415.778 6.41427C416.945 5.24727 418.241 4.72858 419.796 4.72858C421.611 4.72858 423.037 5.37692 424.334 6.80325L423.556 7.58126C422.389 6.28459 421.093 5.76593 419.796 5.76593C418.5 5.76593 417.463 6.28457 416.556 7.19224C415.648 8.09991 415.259 9.26692 415.259 10.6933C415.259 11.9899 415.648 13.1569 416.556 14.1943C417.463 15.1019 418.5 15.6206 419.796 15.6206C421.093 15.6206 422.389 14.9722 423.556 13.6756L424.334 14.3239C423.296 15.6206 421.741 16.3986 419.926 16.3986Z" fill="#25458F"/>
<path d="M429 19.6402C428.222 19.6402 427.444 19.5106 426.796 19.1216L427.185 18.2139C427.704 18.4732 428.352 18.6029 429.13 18.6029C429.778 18.6029 430.167 18.3436 430.685 17.9546C431.204 17.5656 431.593 16.9172 431.982 15.8799L426.537 4.59888H427.833L432.5 14.7129L436.519 4.59888H437.685L432.759 16.2689C432.241 17.4359 431.722 18.2139 431.074 18.7326C430.556 19.3809 429.778 19.6402 429 19.6402Z" fill="#25458F"/>
<path d="M439.889 16.2689C439.5 16.2689 439.111 16.2689 438.593 16.1393L438.852 15.1019C439.241 15.2316 439.5 15.2316 439.759 15.2316C440.019 15.2316 440.278 15.2316 440.537 15.1019C440.796 14.9722 440.926 14.8426 441.185 14.7129C441.445 14.4536 441.574 14.1942 441.704 13.6756C441.833 13.1569 441.963 12.6382 442.093 11.9899C442.222 11.3416 442.352 10.4339 442.352 9.26691C442.352 8.09991 442.482 6.80324 442.482 5.37691V4.72858H450.13V16.0096H449.093V5.63626H443.519V5.89557C443.519 7.7109 443.519 9.26691 443.389 10.5636C443.259 11.8602 443.13 12.7679 443 13.5459C442.871 14.3239 442.611 14.8426 442.222 15.2316C441.834 15.6206 441.574 15.8799 441.315 16.0096C440.796 16.1392 440.408 16.2689 439.889 16.2689Z" fill="#25458F"/>
<path d="M454.148 16.0096V4.72858H455.185V9.0076H458.556C459.852 9.0076 460.889 9.2669 461.667 9.78556C462.445 10.3042 462.834 11.2119 462.834 12.2493C462.834 13.2866 462.445 14.1943 461.667 14.8426C460.889 15.4909 459.982 15.8799 458.685 15.8799H454.148V16.0096ZM455.185 15.1019H458.556C459.463 15.1019 460.241 14.8426 460.889 14.4536C461.408 13.9349 461.667 13.4162 461.667 12.5086C461.667 11.7306 461.408 11.2119 460.76 10.6932C460.241 10.3042 459.463 10.0449 458.426 10.0449H455.185V15.1019V15.1019Z" fill="#25458F"/>
<path d="M468.666 16.0096V5.63624H464.389V4.59888H473.981V5.63624H469.703V16.0096H468.666Z" fill="#25458F"/>
<path d="M476.703 16.0096V4.72858H477.74V14.5832L485.388 4.72858H486.425V16.0096H485.388V6.15492L477.74 16.0096H476.703Z" fill="#25458F"/>
<path d="M490.574 19.6402V4.85823H491.611V7.32189C492.778 5.50655 494.333 4.59888 496.278 4.59888C497.704 4.59888 499 5.11757 500.167 6.28457C501.333 7.3219 501.852 8.74822 501.852 10.5636C501.852 12.3789 501.333 13.8052 500.167 14.8426C499 15.8799 497.833 16.5282 496.278 16.5282C494.333 16.5282 492.778 15.6206 491.611 13.8052V19.7699H490.574V19.6402ZM496.278 15.2316C497.574 15.2316 498.611 14.8426 499.389 13.9349C500.167 13.0272 500.685 11.8602 500.685 10.4339C500.685 9.00755 500.296 7.84057 499.389 6.9329C498.482 6.02523 497.445 5.63623 496.278 5.63623C495.111 5.63623 493.945 6.15491 493.037 7.06258C492.13 7.97024 491.611 9.13722 491.611 10.5636C491.611 11.9899 492.13 13.1569 493.037 14.0646C493.945 14.8426 494.982 15.2316 496.278 15.2316Z" fill="#25458F"/>
<path d="M506.648 19.6402C505.87 19.6402 505.092 19.5106 504.444 19.1216L504.833 18.2139C505.351 18.4732 505.999 18.6029 506.777 18.6029C507.425 18.6029 507.814 18.3436 508.333 17.9546C508.851 17.5656 509.24 16.9172 509.629 15.8799L504.185 4.59888H505.481L510.148 14.7129L514.166 4.59888H515.333L510.407 16.2689C509.888 17.4359 509.37 18.2139 508.722 18.7326C508.073 19.3809 507.425 19.6402 506.648 19.6402Z" fill="#25458F"/>
<path d="M518.185 16.0096V4.72858H519.222V14.5832L526.87 4.72858H527.907V16.0096H526.87V6.15492L519.222 16.0096H518.185ZM525.055 2.26492C524.536 2.78359 523.888 3.04293 523.111 3.04293C522.333 3.04293 521.685 2.78359 521.166 2.26492C520.648 1.74625 520.259 1.22759 520.129 0.449596L521.036 0.190247C521.296 1.22758 522.073 1.74626 523.111 1.74626C524.277 1.74626 524.925 1.22758 525.185 0.190247L526.092 0.449596C525.962 1.09793 525.703 1.74625 525.055 2.26492Z" fill="#25458F"/>
<path d="M535.037 16.0096V5.63624H530.759V4.59888H540.351V5.63624H536.074V16.0096H535.037Z" fill="#25458F"/>
<path d="M547.74 16.3986C546.185 16.3986 544.888 15.8799 543.851 14.7129C542.814 13.5459 542.166 12.1195 542.166 10.4339C542.166 8.74821 542.685 7.45157 543.722 6.28457C544.759 5.11757 546.055 4.59888 547.481 4.59888C549.036 4.59888 550.333 5.11757 551.24 6.28457C552.147 7.45157 552.666 8.87789 552.666 10.5636C552.666 10.6932 552.666 10.9526 552.666 10.9526H543.333C543.462 12.2492 543.851 13.4162 544.759 14.1942C545.666 14.9722 546.573 15.3612 547.74 15.3612C549.166 15.3612 550.462 14.7129 551.629 13.5459L552.407 14.1942C551.11 15.6206 549.555 16.3986 547.74 16.3986ZM543.462 9.91522H551.629C551.499 8.61855 551.11 7.58123 550.462 6.80323C549.814 6.02523 548.777 5.50656 547.61 5.50656C546.444 5.50656 545.536 5.89556 544.759 6.80323C543.981 7.58123 543.462 8.61855 543.462 9.91522Z" fill="#25458F"/>
<path d="M560.963 16.3986C559.278 16.3986 557.982 15.8799 556.815 14.7129C555.648 13.5459 555.13 12.1196 555.13 10.5636C555.13 8.87791 555.648 7.58127 556.815 6.41427C557.982 5.24727 559.278 4.72858 560.834 4.72858C562.648 4.72858 564.074 5.37692 565.371 6.80325L564.593 7.58126C563.426 6.28459 562.13 5.76593 560.834 5.76593C559.537 5.76593 558.5 6.28457 557.593 7.19224C556.685 8.09991 556.297 9.26692 556.297 10.6933C556.297 11.9899 556.685 13.1569 557.593 14.1943C558.5 15.1019 559.537 15.6206 560.834 15.6206C562.13 15.6206 563.426 14.9722 564.593 13.6756L565.371 14.3239C564.204 15.6206 562.648 16.3986 560.963 16.3986Z" fill="#25458F"/>
<path d="M568.611 16.0096V4.72858H569.648V9.0076H573.019C574.315 9.0076 575.352 9.2669 576.13 9.78556C576.908 10.3042 577.297 11.2119 577.297 12.2493C577.297 13.2866 576.908 14.1943 576.13 14.8426C575.352 15.4909 574.445 15.8799 573.148 15.8799H568.611V16.0096ZM569.648 15.1019H573.019C573.926 15.1019 574.704 14.8426 575.352 14.4536C575.871 13.9349 576.13 13.4162 576.13 12.5086C576.13 11.7306 575.871 11.2119 575.222 10.6932C574.704 10.3042 573.926 10.0449 572.889 10.0449H569.648V15.1019Z" fill="#25458F"/>
<path d="M591.945 16.3986C590.259 16.3986 588.963 15.8799 587.797 14.7129C586.63 13.5459 586.111 12.1196 586.111 10.5636C586.111 8.87791 586.63 7.58127 587.797 6.41427C588.963 5.24727 590.259 4.72858 591.815 4.72858C593.63 4.72858 595.056 5.37692 596.352 6.80325L595.574 7.58126C594.408 6.28459 593.111 5.76593 591.815 5.76593C590.519 5.76593 589.482 6.28457 588.574 7.19224C587.667 8.09991 587.278 9.26692 587.278 10.6933C587.278 11.9899 587.667 13.1569 588.574 14.1943C589.482 15.1019 590.519 15.6206 591.815 15.6206C593.111 15.6206 594.408 14.9722 595.574 13.6756L596.352 14.3239C595.185 15.6206 593.63 16.3986 591.945 16.3986Z" fill="#25458F"/>
<path d="M608.667 14.5832C607.5 15.7502 606.204 16.2689 604.519 16.2689C602.834 16.2689 601.537 15.7502 600.371 14.5832C599.334 13.4162 598.686 11.9899 598.686 10.4339C598.686 8.87788 599.204 7.45157 600.371 6.28457C601.537 5.11757 602.834 4.59888 604.519 4.59888C606.204 4.59888 607.5 5.11757 608.667 6.28457C609.704 7.45157 610.352 8.87788 610.352 10.4339C610.352 11.9899 609.834 13.4162 608.667 14.5832ZM604.648 15.3612C605.945 15.3612 606.982 14.8426 607.889 13.9349C608.797 13.0272 609.186 11.8602 609.186 10.4339C609.186 9.13722 608.667 7.97024 607.889 6.9329C606.982 6.02524 605.945 5.50656 604.648 5.50656C603.352 5.50656 602.315 6.02524 601.408 6.9329C600.5 7.84057 600.111 9.00755 600.111 10.4339C600.111 11.7306 600.5 12.8976 601.408 13.9349C602.186 14.8426 603.352 15.3612 604.648 15.3612Z" fill="#25458F"/>
<path d="M625.259 16.3986C623.574 16.3986 622.278 15.8799 621.111 14.7129C619.944 13.5459 619.426 12.1196 619.426 10.5636C619.426 8.87791 619.944 7.58127 621.111 6.41427C622.278 5.24727 623.574 4.72858 625.129 4.72858C626.944 4.72858 628.37 5.37692 629.667 6.80325L628.889 7.58126C627.722 6.28459 626.426 5.76593 625.129 5.76593C623.833 5.76593 622.796 6.28457 621.889 7.19224C620.981 8.09991 620.592 9.26692 620.592 10.6933C620.592 11.9899 620.981 13.1569 621.889 14.1943C622.796 15.1019 623.833 15.6206 625.129 15.6206C626.426 15.6206 627.722 14.9722 628.889 13.6756L629.667 14.3239C628.629 15.6206 627.074 16.3986 625.259 16.3986Z" fill="#25458F"/>
<path d="M633.037 16.0096V4.72858H642.37V16.0096H641.333V5.63626H634.074V16.0096H633.037Z" fill="#25458F"/>
<path d="M651.185 16.3986C649.63 16.3986 648.334 15.8799 647.297 14.7129C646.26 13.5459 645.611 12.1195 645.611 10.4339C645.611 8.74821 646.13 7.45157 647.167 6.28457C648.204 5.11757 649.5 4.59888 650.926 4.59888C652.482 4.59888 653.778 5.11757 654.685 6.28457C655.593 7.45157 656.111 8.87789 656.111 10.5636C656.111 10.6932 656.111 10.9526 656.111 10.9526H646.778C646.908 12.2492 647.297 13.4162 648.204 14.1942C649.111 14.9722 650.019 15.3612 651.185 15.3612C652.611 15.3612 653.908 14.7129 655.074 13.5459L655.852 14.1942C654.556 15.6206 653 16.3986 651.185 16.3986ZM646.778 9.91522H654.945C654.815 8.61855 654.426 7.58123 653.778 6.80323C653.13 6.02523 652.093 5.50656 650.926 5.50656C649.76 5.50656 648.852 5.89556 648.074 6.80323C647.426 7.58123 646.908 8.61855 646.778 9.91522Z" fill="#25458F"/>
<path d="M669.463 19.2513V16.0096H659.352V4.72858H660.389V15.1019H667.648V4.72858H668.685V15.1019H670.5L670.24 19.2513H669.463Z" fill="#25458F"/>
<path d="M673.352 16.0096V4.72858H674.389V14.5832L682.037 4.72858H683.074V16.0096H682.037V6.15492L674.389 16.0096H673.352Z" fill="#25458F"/>
<path d="M690.722 16.3986C689.426 16.3986 688.389 16.1393 687.611 15.4909C686.833 14.8426 686.314 13.9349 686.314 12.8976C686.314 11.7306 686.703 10.8229 687.611 10.1746C688.518 9.52624 689.685 9.13721 691.24 9.13721C692.537 9.13721 693.703 9.26691 695 9.65591V9.13721C695 7.97021 694.74 7.19221 693.963 6.54388C693.314 5.89554 692.407 5.63623 691.24 5.63623C690.074 5.63623 688.907 5.89554 687.74 6.54388L687.351 5.63623C688.777 4.9879 690.074 4.59888 691.37 4.59888C692.926 4.59888 694.092 4.98788 694.87 5.89554C695.648 6.67355 696.037 7.71088 696.037 9.13721V16.1393H695V14.1942C693.963 15.6206 692.537 16.3986 690.722 16.3986ZM690.722 15.3612C691.889 15.3612 692.926 14.9722 693.703 14.3239C694.481 13.6755 695 12.8976 695 11.8602V10.5636C693.703 10.1746 692.407 10.0449 691.111 10.0449C689.944 10.0449 689.037 10.3042 688.388 10.8229C687.74 11.3416 687.481 11.9899 687.481 12.7679C687.481 13.5459 687.74 14.1942 688.388 14.7129C688.907 15.1019 689.685 15.3612 690.722 15.3612Z" fill="#25458F"/>
<path d="M699.148 16.2689C698.759 16.2689 698.37 16.2689 697.852 16.1393L698.111 15.1019C698.5 15.2316 698.759 15.2316 699.018 15.2316C699.277 15.2316 699.537 15.2316 699.796 15.1019C700.055 14.9722 700.185 14.8426 700.444 14.7129C700.703 14.4536 700.833 14.1942 700.963 13.6756C701.092 13.1569 701.222 12.6382 701.351 11.9899C701.481 11.3416 701.611 10.4339 701.611 9.26691C701.611 8.09991 701.74 6.80324 701.74 5.37691V4.72858H709.389V16.0096H708.352V5.63626H702.777V5.89557C702.777 7.7109 702.777 9.26691 702.648 10.5636C702.518 11.8602 702.389 12.7679 702.259 13.5459C702.129 14.3239 701.87 14.8426 701.481 15.2316C701.092 15.6206 700.833 15.8799 700.574 16.0096C700.055 16.1392 699.666 16.2689 699.148 16.2689Z" fill="#25458F"/>
<path d="M713.407 16.0096V4.72858H714.444V14.5832L722.092 4.72858H723.129V16.0096H722.092V6.15492L714.444 16.0096H713.407Z" fill="#25458F"/>
<path d="M732.333 16.3986C730.648 16.3986 729.352 15.8799 728.185 14.7129C727.019 13.5459 726.5 12.1196 726.5 10.5636C726.5 8.87791 727.019 7.58127 728.185 6.41427C729.352 5.24727 730.648 4.72858 732.204 4.72858C734.019 4.72858 735.445 5.37692 736.741 6.80325L735.963 7.58126C734.796 6.28459 733.5 5.76593 732.204 5.76593C730.907 5.76593 729.87 6.28457 728.963 7.19224C728.056 8.09991 727.667 9.26692 727.667 10.6933C727.667 11.9899 728.056 13.1569 728.963 14.1943C729.87 15.1019 730.907 15.6206 732.204 15.6206C733.5 15.6206 734.796 14.9722 735.963 13.6756L736.741 14.3239C735.574 15.6206 734.148 16.3986 732.333 16.3986Z" fill="#25458F"/>
<path d="M742.833 16.0096V5.63624H738.556V4.59888H748.148V5.63624H743.871V16.0096H742.833Z" fill="#25458F"/>
<path d="M759.944 14.5832C758.778 15.7502 757.481 16.2689 755.796 16.2689C754.111 16.2689 752.815 15.7502 751.648 14.5832C750.611 13.4162 749.963 11.9899 749.963 10.4339C749.963 8.87788 750.481 7.45157 751.648 6.28457C752.815 5.11757 754.111 4.59888 755.796 4.59888C757.481 4.59888 758.778 5.11757 759.944 6.28457C760.981 7.45157 761.63 8.87788 761.63 10.4339C761.63 11.9899 761.111 13.4162 759.944 14.5832ZM755.926 15.3612C757.222 15.3612 758.259 14.8426 759.167 13.9349C760.074 13.0272 760.463 11.8602 760.463 10.4339C760.463 9.13722 759.944 7.97024 759.167 6.9329C758.259 6.02524 757.222 5.50656 755.926 5.50656C754.63 5.50656 753.593 6.02524 752.685 6.9329C751.778 7.84057 751.389 9.00755 751.389 10.4339C751.389 11.7306 751.778 12.8976 752.685 13.9349C753.463 14.8426 754.63 15.3612 755.926 15.3612Z" fill="#25458F"/>
<path d="M765 16.0096V4.72858H766.037L770.574 11.2119L775.111 4.72858H776.148V16.0096H775.111V6.5439L770.574 12.7679L766.037 6.5439V16.0096H765Z" fill="#25458F"/>
</svg>
