<svg width="552" height="201" viewBox="0 0 552 201" fill="none" xmlns="http://www.w3.org/2000/svg">
<path d="M297.353 127.601C296.056 128.897 294.501 129.675 292.686 129.675C290.871 129.675 289.316 129.027 288.019 127.601C286.723 126.304 286.075 124.489 286.075 122.414C286.075 120.339 286.723 118.524 288.019 117.227C289.316 115.931 290.871 115.153 292.686 115.153C294.501 115.153 296.056 115.801 297.353 117.227C298.649 118.524 299.167 120.339 299.167 122.414C299.297 124.489 298.649 126.304 297.353 127.601ZM292.816 109.577C289.186 109.577 286.204 110.744 283.871 113.208C281.538 115.542 280.371 118.654 280.371 122.414C280.371 126.174 281.538 129.157 283.871 131.62C286.204 133.954 289.186 135.251 292.816 135.251C296.445 135.251 299.427 134.084 301.76 131.62C304.093 129.286 305.26 126.174 305.26 122.414C305.26 118.654 304.093 115.671 301.76 113.208C299.427 110.874 296.445 109.577 292.816 109.577Z" fill="#25458F"/>
<path d="M320.686 115.153C323.408 115.153 325.223 116.449 326.26 119.043H332.223C331.963 118.005 331.704 116.968 331.186 116.06C330.667 115.023 330.019 114.115 329.112 113.078C328.204 112.041 327.038 111.263 325.612 110.614C324.186 109.966 322.5 109.707 320.686 109.707C317.056 109.707 314.075 110.874 311.741 113.337C309.408 115.671 308.241 118.783 308.241 122.544C308.241 126.304 309.408 129.286 311.741 131.75C314.075 134.084 317.056 135.381 320.686 135.381C322.5 135.381 324.186 135.121 325.612 134.473C327.038 133.825 328.204 133.047 329.112 132.009C330.019 130.972 330.667 129.935 331.186 128.897C331.704 127.86 332.093 126.823 332.223 125.656H326.26C325.352 128.379 323.538 129.805 320.686 129.805C318.871 129.805 317.315 129.157 316.019 127.73C314.723 126.434 314.075 124.618 314.075 122.544C314.075 120.469 314.723 118.654 316.019 117.357C317.315 115.801 318.871 115.153 320.686 115.153Z" fill="#25458F"/>
<path d="M370.334 120.21C370.723 118.524 371.501 117.227 372.538 116.19C373.704 115.153 375.13 114.634 376.816 114.634C378.501 114.634 379.797 115.153 380.834 116.19C381.871 117.227 382.519 118.524 382.778 120.21H370.334ZM376.816 109.577C373.186 109.577 370.204 110.744 367.871 113.208C365.538 115.542 364.371 118.654 364.371 122.414C364.371 126.174 365.538 129.157 367.871 131.62C370.204 133.954 373.186 135.251 376.816 135.251C378.63 135.251 380.316 134.992 381.741 134.343C383.167 133.695 384.334 133.047 385.241 132.139C386.019 131.231 386.797 130.324 387.186 129.675C387.704 128.897 387.964 128.249 388.093 127.601H381.871C381.612 128.249 380.964 128.897 380.056 129.416C379.149 129.935 378.112 130.324 376.816 130.324C375.13 130.324 373.704 129.805 372.538 128.768C371.371 127.73 370.593 126.304 370.334 124.618H388.612L388.741 123.97C388.871 123.062 388.871 122.544 388.871 122.284C388.871 118.783 387.704 115.931 385.371 113.597C383.038 110.744 380.186 109.577 376.816 109.577Z" fill="#F6910D"/>
<path d="M269.223 127.601C267.926 128.897 266.371 129.675 264.556 129.675C262.741 129.675 261.186 129.027 259.889 127.601C258.593 126.304 258.075 124.489 258.075 122.414C258.075 120.339 258.723 118.524 259.889 117.227C261.186 115.931 262.741 115.153 264.556 115.153C266.371 115.153 267.926 115.801 269.223 117.227C270.519 118.524 271.167 120.339 271.167 122.414C271.167 124.489 270.519 126.304 269.223 127.601ZM271.167 111.263C269.223 110.096 267.149 109.577 264.686 109.577C261.056 109.577 258.075 110.744 255.741 113.208C253.408 115.542 252.241 118.654 252.241 122.414C252.241 126.174 253.408 129.157 255.741 131.62C258.075 133.954 261.056 135.251 264.686 135.251C268.315 135.251 271.297 134.084 273.63 131.62C275.963 129.286 277.13 126.174 277.13 122.414V101.667H271.167V111.263V111.263Z" fill="#25458F"/>
<path d="M352.834 127.601C351.537 128.897 349.982 129.675 348.167 129.675C346.352 129.675 344.797 129.027 343.5 127.601C342.204 126.304 341.686 124.489 341.686 122.414C341.686 120.339 342.334 118.524 343.5 117.227C344.797 115.931 346.352 115.153 348.167 115.153C349.982 115.153 351.537 115.801 352.834 117.227C354.13 118.524 354.649 120.339 354.649 122.414C354.649 124.489 354 126.304 352.834 127.601ZM354.649 101.667V111.263C352.834 110.096 350.63 109.577 348.167 109.577C344.537 109.577 341.556 110.744 339.223 113.208C336.889 115.542 335.723 118.654 335.723 122.414C335.723 126.174 336.889 129.157 339.223 131.62C341.556 133.954 344.537 135.251 348.167 135.251C351.797 135.251 354.778 134.084 357.112 131.62C359.445 129.286 360.612 126.174 360.612 122.414V101.667H354.649Z" fill="#D6272C"/>
<path d="M392.89 128.897V103.094H398.853V110.095H404.427V115.93H398.853V127.73C398.853 128.897 399.371 129.416 400.538 129.416H404.427V134.732H399.112C397.038 134.732 395.612 134.214 394.445 133.176C393.408 132.139 392.89 130.712 392.89 128.897Z" fill="#A4BA4E"/>
<path d="M416.223 110.225H410.26V134.602H416.223V110.225Z" fill="#3DB4ED"/>
<path d="M2.57422 33.5922V1.43481H16.1853C19.9446 1.43481 22.7964 2.34249 24.6112 4.28749C26.0372 5.71382 26.6853 7.52915 26.6853 9.47415C26.6853 12.9752 25.0001 15.4388 21.6298 16.8652C26.1668 18.2915 28.5001 20.8848 28.5001 24.7748C28.5001 27.4978 27.4631 29.7022 25.389 31.2582C23.315 32.8142 20.4631 33.5922 16.8335 33.5922H2.57422V33.5922ZM6.07421 15.6981H15.5372C17.7409 15.6981 19.5557 15.1795 20.852 14.1422C22.1483 13.1048 22.9261 11.6785 22.9261 9.86315C22.9261 8.17748 22.2779 7.01048 21.1113 5.97315C19.815 5.06548 18.1298 4.54682 15.7964 4.54682H6.07421V15.6981V15.6981ZM6.07421 30.3505H16.8335C19.2964 30.3505 21.2409 29.8318 22.6668 28.7945C24.0927 27.7571 24.7409 26.3308 24.7409 24.5155C24.7409 22.7002 23.9631 21.4035 22.5372 20.3661C21.1113 19.4585 18.9075 18.9398 16.1853 18.9398H6.07421V30.3505V30.3505Z" fill="#25458F"/>
<path d="M35.1113 33.5923V9.86328H38.6113V18.8103H44.9632C47.6854 18.8103 50.0187 19.4586 51.7039 20.6256C53.3891 21.7926 54.2965 23.608 54.2965 25.942C54.2965 28.276 53.5187 30.221 51.8336 31.5176C50.1484 32.944 48.0743 33.5923 45.3521 33.5923H35.1113V33.5923ZM38.6113 30.4803H45.0928C46.9076 30.4803 48.3336 30.0913 49.241 29.3133C50.278 28.5353 50.7965 27.3683 50.7965 25.942C50.7965 24.6453 50.278 23.608 49.241 22.83C48.2039 22.052 46.778 21.7926 44.9632 21.7926H38.6113V30.4803ZM58.5743 33.5923V9.86328H62.0743V33.5923H58.5743V33.5923Z" fill="#25458F"/>
<path d="M70.1113 33.5923V9.86328H73.6113V28.665L87.741 9.86328H91.241V33.5923H87.741V14.7906L73.6113 33.5923H70.1113Z" fill="#25458F"/>
<path d="M99.0186 33.5923V9.86328H115.093V12.9753H102.519V33.5923H99.0186Z" fill="#25458F"/>
<path d="M120.278 40.8535V9.73351H123.778V14.5312C126.112 11.0302 129.223 9.21484 132.852 9.21484C135.834 9.21484 138.556 10.3818 140.76 12.5862C142.964 14.7905 144.13 17.9025 144.13 21.6628C144.13 25.4232 142.964 28.4055 140.76 30.6098C138.556 32.8142 135.834 33.9812 132.852 33.9812C129.093 33.9812 126.112 32.2955 123.778 28.9242V40.8535H120.278ZM132.334 30.8692C134.667 30.8692 136.741 30.0912 138.297 28.4055C139.852 26.7198 140.63 24.5155 140.63 21.6628C140.63 18.9398 139.852 16.7355 138.167 15.0498C136.482 13.3642 134.538 12.4565 132.204 12.4565C129.871 12.4565 127.926 13.3642 126.241 15.0498C124.556 16.7355 123.649 18.9398 123.649 21.6628C123.649 24.3858 124.556 26.4605 126.241 28.2758C127.926 30.0912 130.001 30.8692 132.334 30.8692Z" fill="#25458F"/>
<path d="M154.629 34.1108C152.166 34.1108 150.092 33.4625 148.407 32.1658C146.722 30.8692 145.814 29.0538 145.814 26.5902C145.814 24.1265 146.722 22.1815 148.537 20.8848C150.352 19.5882 152.814 18.8102 155.926 18.8102C158.389 18.8102 160.851 19.1992 163.185 19.8475V19.0695C163.185 16.9948 162.537 15.4388 161.37 14.2718C160.203 13.1048 158.389 12.5862 156.185 12.5862C153.851 12.5862 151.518 13.1048 148.926 14.2718L147.889 11.4192C150.87 10.1225 153.722 9.34448 156.574 9.34448C159.944 9.34448 162.537 10.2521 164.222 11.9378C165.907 13.6235 166.685 15.9575 166.685 18.9398V33.4625H163.185V29.9615C161.111 32.6845 158.259 34.1108 154.629 34.1108ZM155.407 31.2582C157.611 31.2582 159.426 30.6098 160.981 29.4428C162.537 28.2758 163.314 26.7198 163.314 24.9045V22.7002C160.981 22.0518 158.648 21.6628 156.444 21.6628C154.24 21.6628 152.555 22.0518 151.389 22.9595C150.222 23.8672 149.574 25.0342 149.574 26.4605C149.574 27.8868 150.092 29.0538 151.259 29.9615C152.296 30.7395 153.722 31.2582 155.407 31.2582Z" fill="#25458F"/>
<path d="M174.204 33.5922V9.86316H177.704V28.6648L191.834 9.86316H195.334V33.5922H191.834V14.7905L177.704 33.5922H174.204ZM188.982 4.80615C187.815 5.84349 186.389 6.36216 184.704 6.36216C183.019 6.36216 181.593 5.84349 180.426 4.80615C179.26 3.76882 178.482 2.47216 178.223 0.786491L180.686 0.267822C181.334 2.47216 182.63 3.50949 184.704 3.50949C186.778 3.50949 188.074 2.47216 188.723 0.267822L191.186 0.786491C190.797 2.47216 190.149 3.76882 188.982 4.80615Z" fill="#25458F"/>
<path d="M216.981 33.5923V9.86328H233.056V12.9753H220.481V33.5923H216.981Z" fill="#25458F"/>
<path d="M256.648 30.4802C254.315 32.9438 251.333 34.1108 247.833 34.1108C244.333 34.1108 241.352 32.9438 239.019 30.4802C236.685 28.0165 235.519 25.1638 235.519 21.6628C235.519 18.2915 236.685 15.3092 239.019 12.9752C241.352 10.6412 244.333 9.34448 247.833 9.34448C251.333 9.34448 254.315 10.5115 256.648 12.9752C258.982 15.4388 260.148 18.2915 260.148 21.7925C260.148 25.1638 258.982 28.0165 256.648 30.4802ZM247.833 30.9988C250.426 30.9988 252.5 30.0912 254.056 28.2758C255.741 26.4605 256.519 24.2562 256.519 21.6628C256.519 19.0695 255.611 16.8652 253.926 15.0498C252.241 13.2345 250.167 12.3268 247.704 12.3268C245.111 12.3268 243.037 13.2345 241.482 15.0498C239.796 16.8652 239.019 19.0695 239.019 21.6628C239.019 24.2562 239.796 26.4605 241.482 28.1462C243.296 30.0912 245.37 30.9988 247.833 30.9988Z" fill="#25458F"/>
<path d="M262.611 39.4271V30.3504H265.204C267.278 26.4604 268.315 21.0144 268.315 13.8827V9.7334H285.167V30.4801H288.796L288.278 39.5567H285.297V33.5921H266.111L265.463 39.5567H262.611V39.4271ZM268.963 30.4801H281.667V12.9751H271.685V16.2167C271.815 22.1814 270.908 26.9791 268.963 30.4801Z" fill="#25458F"/>
<path d="M313.426 30.4802C311.093 32.9438 308.112 34.1108 304.612 34.1108C301.112 34.1108 298.13 32.9438 295.797 30.4802C293.464 28.0165 292.297 25.1638 292.297 21.6628C292.297 18.2915 293.464 15.3092 295.797 12.9752C298.13 10.6412 301.112 9.34448 304.612 9.34448C308.112 9.34448 311.093 10.5115 313.426 12.9752C315.76 15.4388 316.926 18.2915 316.926 21.7925C317.056 25.1638 315.76 28.0165 313.426 30.4802ZM304.612 30.9988C307.204 30.9988 309.278 30.0912 310.834 28.2758C312.519 26.4605 313.297 24.2562 313.297 21.6628C313.297 19.0695 312.389 16.8652 310.704 15.0498C309.019 13.2345 306.945 12.3268 304.482 12.3268C301.889 12.3268 299.815 13.2345 298.26 15.0498C296.575 16.8652 295.797 19.0695 295.797 21.6628C295.797 24.2562 296.575 26.4605 298.26 28.1462C300.075 30.0912 302.149 30.9988 304.612 30.9988Z" fill="#25458F"/>
<path d="M323.407 33.5923V9.86328H334.944C337.278 9.86328 339.222 10.382 340.648 11.4193C342.074 12.4566 342.722 13.8829 342.722 15.6983C342.722 18.2916 341.426 20.107 338.833 21.1443C342.333 22.052 344.018 23.997 344.018 26.9793C344.018 28.9243 343.241 30.61 341.685 31.6473C340.129 32.8143 338.055 33.333 335.333 33.333H323.407V33.5923ZM326.907 19.9773H334.166C335.592 19.9773 336.759 19.5883 337.666 18.94C338.574 18.2916 338.963 17.384 338.963 16.0873C338.963 15.05 338.574 14.272 337.666 13.6236C336.889 12.9753 335.722 12.716 334.166 12.716H326.778V19.9773H326.907ZM326.907 30.4803H334.815C336.5 30.4803 337.796 30.0913 338.833 29.443C339.87 28.7946 340.259 27.7573 340.259 26.4606C340.259 25.2936 339.741 24.386 338.704 23.7376C337.666 23.0893 336.241 22.83 334.296 22.83H326.907V30.4803V30.4803Z" fill="#25458F"/>
<path d="M370.074 30.4802C367.741 32.9438 364.759 34.1108 361.259 34.1108C357.759 34.1108 354.778 32.9438 352.444 30.4802C350.111 28.0165 348.944 25.1638 348.944 21.6628C348.944 18.2915 350.111 15.3092 352.444 12.9752C354.778 10.6412 357.759 9.34448 361.259 9.34448C364.759 9.34448 367.741 10.5115 370.074 12.9752C372.407 15.4388 373.574 18.2915 373.574 21.7925C373.574 25.1638 372.407 28.0165 370.074 30.4802ZM361.259 30.9988C363.852 30.9988 365.926 30.0912 367.481 28.2758C369.167 26.4605 369.944 24.2562 369.944 21.6628C369.944 19.0695 369.037 16.8652 367.352 15.0498C365.667 13.2345 363.592 12.3268 361.13 12.3268C358.537 12.3268 356.463 13.2345 354.907 15.0498C353.222 16.8652 352.444 19.0695 352.444 21.6628C352.444 24.2562 353.222 26.4605 354.907 28.1462C356.722 30.0912 358.796 30.9988 361.259 30.9988Z" fill="#25458F"/>
<path d="M390.296 34.1109C386.926 34.1109 384.204 32.9438 381.87 30.6098C379.537 28.2758 378.5 25.2935 378.5 21.6628C378.5 18.1618 379.537 15.3092 381.741 12.8455C383.944 10.3818 386.667 9.21484 389.907 9.21484C393.278 9.21484 396 10.3818 397.944 12.8455C399.889 15.1795 400.926 18.2915 400.926 21.7925C400.926 22.3112 400.926 22.7002 400.926 23.0892H382.13C382.389 25.5529 383.296 27.3682 384.852 28.7945C386.407 30.2208 388.352 30.8692 390.426 30.8692C393.278 30.8692 395.741 29.7022 397.944 27.4978L400.148 29.4428C397.426 32.6845 394.185 34.1109 390.296 34.1109ZM382.13 20.2365H397.426C397.167 17.9025 396.389 16.0872 395.093 14.5312C393.796 12.9752 391.981 12.1972 389.778 12.1972C387.704 12.1972 386.019 12.9752 384.593 14.4015C383.167 16.0872 382.389 17.9025 382.13 20.2365Z" fill="#25458F"/>
<path d="M21.6296 81.0502C19.2963 83.5139 16.3148 84.6809 12.8148 84.6809C9.31481 84.6809 6.33333 83.5139 4 81.0502C1.66666 78.5866 0.5 75.7339 0.5 72.2329C0.5 68.8616 1.66666 65.8792 4 63.5452C6.33333 61.2112 9.31481 59.9146 12.8148 59.9146C16.3148 59.9146 19.2963 61.0816 21.6296 63.5452C23.963 66.0089 25.1296 68.8616 25.1296 72.3626C25.2593 75.7339 24.0926 78.7162 21.6296 81.0502ZM12.9444 81.5689C15.537 81.5689 17.6111 80.6612 19.1667 78.8459C20.8519 77.0306 21.6296 74.8262 21.6296 72.2329C21.6296 69.6396 20.7222 67.4352 19.037 65.6199C17.3518 63.8046 15.2778 62.8969 12.8148 62.8969C10.2222 62.8969 8.14814 63.8046 6.59259 65.6199C4.9074 67.4352 4.12962 69.6396 4.12962 72.2329C4.12962 74.8262 4.9074 77.0306 6.59259 78.7162C8.27777 80.6612 10.3518 81.5689 12.9444 81.5689Z" fill="#25458F"/>
<path d="M42.7589 84.8105C39.1293 84.8105 36.1478 83.6435 34.0737 81.1798C31.87 78.7161 30.833 75.4745 30.833 71.4548C30.833 69.8988 30.833 68.7318 30.9626 67.5648C30.9626 66.5275 31.0923 65.3605 31.3515 64.0638C31.4811 62.7671 31.87 61.7298 32.2589 60.6925C32.6478 59.7848 33.1663 58.8771 33.8145 57.9695C34.4626 57.0618 35.2404 56.2838 36.2774 55.7651C37.3145 55.1168 38.4811 54.7278 39.7774 54.3388L52.9997 51.2268L53.6478 54.2091L40.8145 57.3211C38.4812 57.9695 36.6663 58.8771 35.6293 60.1738C34.5923 61.4705 33.9441 63.4155 33.8145 65.7495C35.8886 62.3781 39.1293 60.5628 43.6663 60.5628C46.7774 60.5628 49.4997 61.7298 51.7034 64.0638C53.9071 66.3978 55.0737 69.1208 55.0737 72.3625C55.0737 75.7338 53.9071 78.5865 51.5737 81.0501C49.1108 83.5138 46.2589 84.8105 42.7589 84.8105ZM42.8886 81.5688C45.3515 81.5688 47.296 80.6611 48.8515 78.9755C50.4071 77.2898 51.1849 75.0855 51.1849 72.6218C51.1849 70.1581 50.4071 68.0835 48.7219 66.2681C47.0367 64.5825 45.0923 63.6748 42.6293 63.6748C40.1663 63.6748 38.2219 64.5825 36.6663 66.2681C35.1108 67.9538 34.333 70.1581 34.333 72.6218C34.333 75.0855 35.1108 77.1601 36.796 78.9755C38.4812 80.6611 40.4256 81.5688 42.8886 81.5688Z" fill="#25458F"/>
<path d="M72.0553 84.8105C68.685 84.8105 65.7035 83.6435 63.3701 81.1798C61.0368 78.7162 59.8701 75.8635 59.8701 72.4921C59.8701 69.1208 61.0368 66.1385 63.3701 63.8045C65.7035 61.4705 68.5553 60.1738 72.0553 60.1738C75.685 60.1738 78.9257 61.6002 81.5183 64.4528L79.3146 66.7868C77.1109 64.4528 74.6479 63.2858 72.0553 63.2858C69.722 63.2858 67.6479 64.1935 65.9627 66.0088C64.2775 67.8242 63.4998 70.0285 63.4998 72.6218C63.4998 75.2152 64.2775 77.4195 65.9627 79.1051C67.6479 80.9205 69.722 81.8282 72.1849 81.8282C74.7775 81.8282 77.1109 80.6612 79.3146 78.1975L81.6479 80.4018C78.9257 83.2545 75.685 84.8105 72.0553 84.8105Z" fill="#25458F"/>
<path d="M86.4446 84.5511C85.5372 84.5511 84.6298 84.4214 83.5928 84.1621L83.9817 81.1798C84.6298 81.4391 85.278 81.4391 85.6669 81.4391C86.315 81.4391 86.8335 81.3094 87.352 81.1798C87.7409 81.0501 88.2594 80.5314 88.778 79.8831C89.2965 79.1051 89.6854 78.1974 89.9446 76.7711C90.2039 75.4744 90.4631 73.5294 90.5928 71.1954C90.852 68.7318 90.852 65.8791 90.852 62.3781V60.4331H107.704V84.1621H104.204V63.5451H94.2224V64.0638C94.2224 67.6944 94.0928 70.8064 93.8335 73.2701C93.5742 75.8634 93.1854 77.8084 92.7965 79.2348C92.4076 80.6611 91.7594 81.8281 91.1113 82.6061C90.3335 83.3841 89.6854 83.9028 89.0372 84.1621C88.2594 84.4214 87.352 84.5511 86.4446 84.5511Z" fill="#25458F"/>
<path d="M119.241 91.6828C117.556 91.6828 115.871 91.2938 114.186 90.5158L115.352 87.6631C116.519 88.1818 117.686 88.5708 119.112 88.5708C120.149 88.5708 121.056 88.1818 121.834 87.5334C122.612 86.8851 123.26 85.7181 124.038 84.0324L113.278 60.4331H117.167L125.852 80.2721L133.501 60.4331H137.26L127.278 84.9401C126.241 87.4038 125.204 89.0894 123.908 90.1268C122.612 91.1641 121.056 91.6828 119.241 91.6828Z" fill="#25458F"/>
<path d="M139.723 84.1621L149.445 70.5471L140.241 60.4331H144.519L156.574 74.1778V60.4331H160.074V74.1778L172.13 60.4331H176.408L167.204 70.5471L176.926 84.1621H172.778L164.871 73.1404L160.074 78.4568V84.2918H156.574V78.4568L151.778 73.1404L143.871 84.1621H139.723Z" fill="#25458F"/>
<path d="M181.852 84.1621V60.4331H185.352V79.2348L199.481 60.4331H202.981V84.1621H199.481V65.4901L185.352 84.2918H181.852V84.1621Z" fill="#25458F"/>
<path d="M210.76 84.1621V60.4331H222.297C224.63 60.4331 226.575 60.9518 228 61.9891C229.426 63.0264 230.075 64.4528 230.075 66.2681C230.075 68.8614 228.778 70.6768 226.186 71.7141C229.686 72.6218 231.371 74.5668 231.371 77.5491C231.371 79.4941 230.593 81.1798 229.038 82.2171C227.482 83.3841 225.408 83.9028 222.686 83.9028H210.76V84.1621ZM214.389 70.6768H221.649C223.075 70.6768 224.241 70.2878 225.149 69.6394C226.056 68.9911 226.445 68.0834 226.445 66.7868C226.445 65.7494 226.056 64.9714 225.149 64.3231C224.371 63.6748 223.204 63.4154 221.649 63.4154H214.26V70.6768H214.389ZM214.389 81.1798H222.297C223.982 81.1798 225.278 80.7908 226.315 80.1425C227.352 79.4941 227.741 78.4568 227.741 77.1601C227.741 75.9931 227.223 75.0854 226.186 74.4371C225.149 73.7888 223.723 73.5294 221.778 73.5294H214.389V81.1798Z" fill="#25458F"/>
<path d="M244.722 84.6809C242.259 84.6809 240.185 84.0326 238.5 82.7359C236.815 81.4392 235.907 79.6239 235.907 77.1602C235.907 74.6966 236.815 72.7516 238.629 71.4549C240.444 70.1582 242.907 69.3802 246.018 69.3802C248.481 69.3802 250.944 69.7692 253.278 70.4176V69.6396C253.278 67.5649 252.629 66.0089 251.463 64.8419C250.296 63.6749 248.481 63.1562 246.278 63.1562C243.944 63.1562 241.611 63.6749 239.018 64.8419L237.981 61.9892C240.963 60.6926 243.815 59.9146 246.666 59.9146C250.037 59.9146 252.629 60.8222 254.315 62.5079C256 64.1936 256.778 66.5276 256.778 69.5099V84.0326H253.278V80.5316C251.204 83.3842 248.352 84.6809 244.722 84.6809ZM245.5 81.8282C247.704 81.8282 249.518 81.1799 251.074 80.0129C252.629 78.8459 253.407 77.2899 253.407 75.4746V73.2702C251.074 72.6219 248.741 72.2329 246.537 72.2329C244.333 72.2329 242.648 72.6219 241.481 73.5296C240.315 74.4372 239.666 75.6042 239.666 77.0305C239.666 78.4569 240.185 79.6239 241.352 80.5316C242.389 81.4392 243.815 81.8282 245.5 81.8282Z" fill="#25458F"/>
<path d="M264.297 84.1621V60.4331H267.797V70.6768H281.538V60.4331H285.038V84.1621H281.538V73.7888H267.797V84.1621H264.297Z" fill="#25458F"/>
<path d="M292.944 84.1621V60.4331H296.444V79.2348L310.574 60.4331H314.074V84.1621H310.444V65.4901L296.315 84.2918H292.944V84.1621Z" fill="#25458F"/>
<path d="M332.352 84.8105C328.982 84.8105 326.259 83.6435 323.926 81.3096C321.593 78.9756 320.556 75.9932 320.556 72.3626C320.556 68.8616 321.593 66.0089 323.796 63.5452C326 61.0816 328.722 59.9146 331.963 59.9146C335.333 59.9146 338.056 61.0816 340 63.5452C341.945 65.8792 342.982 68.9912 342.982 72.4922C342.982 73.0109 342.982 73.3999 342.982 73.7889H324.185C324.445 76.2525 325.352 78.0679 326.908 79.4942C328.463 80.9206 330.408 81.5689 332.482 81.5689C335.333 81.5689 337.796 80.4019 340 78.1976L342.204 80.1426C339.482 83.2546 336.111 84.8105 332.352 84.8105ZM324.056 70.9362H339.352C339.093 68.6022 338.315 66.7869 337.019 65.2309C335.722 63.6749 333.908 62.8969 331.704 62.8969C329.63 62.8969 327.945 63.6749 326.519 65.1012C325.093 66.6572 324.315 68.6022 324.056 70.9362Z" fill="#25458F"/>
<path d="M362.944 91.5532V60.4332H366.444V65.2309C368.778 61.7299 371.889 59.9146 375.518 59.9146C378.5 59.9146 381.222 61.0816 383.426 63.2859C385.63 65.4902 386.796 68.6022 386.796 72.3626C386.796 76.1229 385.63 79.1052 383.426 81.3095C381.222 83.5139 378.5 84.6809 375.518 84.6809C371.759 84.6809 368.778 82.9952 366.444 79.6239V91.5532H362.944ZM374.87 81.5689C377.204 81.5689 379.278 80.7909 380.833 79.1052C382.389 77.4196 383.167 75.2152 383.167 72.3626C383.167 69.6396 382.389 67.4352 380.704 65.7495C379.018 64.0639 377.074 63.1562 374.741 63.1562C372.407 63.1562 370.463 64.0639 368.778 65.7495C367.092 67.4352 366.185 69.6396 366.185 72.3626C366.185 75.0856 367.092 77.1602 368.778 78.9755C370.592 80.6612 372.537 81.5689 374.87 81.5689Z" fill="#25458F"/>
<path d="M403.778 84.8105C400.407 84.8105 397.685 83.6435 395.352 81.3096C393.018 78.9756 391.981 75.9932 391.981 72.3626C391.981 68.8616 393.018 66.0089 395.222 63.5452C397.426 61.0816 400.148 59.9146 403.389 59.9146C406.759 59.9146 409.481 61.0816 411.426 63.5452C413.37 65.8792 414.407 68.9912 414.407 72.4922C414.407 73.0109 414.407 73.3999 414.407 73.7889H395.611C395.87 76.2525 396.778 78.0679 398.333 79.4942C399.889 80.9206 401.833 81.5689 403.907 81.5689C406.759 81.5689 409.222 80.4019 411.426 78.1976L413.63 80.1426C410.907 83.2546 407.667 84.8105 403.778 84.8105ZM395.481 70.9362H410.778C410.518 68.6022 409.741 66.7869 408.444 65.2309C407.148 63.6749 405.333 62.8969 403.13 62.8969C401.056 62.8969 399.37 63.6749 397.944 65.1012C396.518 66.6572 395.741 68.6022 395.481 70.9362Z" fill="#25458F"/>
<path d="M431.778 84.8105C428.148 84.8105 425.166 83.6435 423.092 81.1798C420.889 78.7161 419.852 75.4745 419.852 71.4548C419.852 69.8988 419.852 68.7318 419.981 67.5648C419.981 66.5275 420.111 65.3605 420.37 64.0638C420.5 62.7671 420.889 61.7298 421.277 60.6925C421.666 59.7848 422.185 58.8771 422.833 57.9695C423.481 57.0618 424.259 56.2838 425.296 55.7651C426.333 55.1168 427.5 54.7278 428.796 54.3388L442.018 51.2268L442.666 54.2091L429.833 57.3211C427.5 57.9695 425.685 58.8771 424.648 60.1738C423.611 61.4705 422.963 63.4155 422.833 65.7495C424.907 62.3781 428.148 60.5628 432.685 60.5628C435.796 60.5628 438.518 61.7298 440.722 64.0638C442.926 66.3978 444.092 69.1208 444.092 72.3625C444.092 75.7338 442.926 78.5865 440.592 81.0501C438.129 83.5138 435.148 84.8105 431.778 84.8105ZM431.778 81.5688C434.24 81.5688 436.185 80.6611 437.74 78.9755C439.296 77.2898 440.074 75.0855 440.074 72.6218C440.074 70.1581 439.296 68.0835 437.611 66.2681C435.926 64.5825 433.981 63.6748 431.518 63.6748C429.055 63.6748 427.111 64.5825 425.555 66.2681C424 67.9538 423.222 70.1581 423.222 72.6218C423.222 75.0855 424 77.1601 425.685 78.9755C427.37 80.6611 429.444 81.5688 431.778 81.5688Z" fill="#25458F"/>
<path d="M460.685 84.8104C457.315 84.8104 454.592 83.6434 452.259 81.3094C449.926 78.9754 448.889 75.9931 448.889 72.3624C448.889 68.8614 449.926 66.0088 452.129 63.5451C454.333 61.0814 457.055 59.9144 460.296 59.9144C463.666 59.9144 466.389 61.0814 468.333 63.5451C470.278 65.8791 471.315 68.9911 471.315 72.4921C471.315 73.0108 471.315 73.3998 471.315 73.7888H452.518C452.778 76.2524 453.685 78.0678 455.241 79.4941C456.796 80.9204 458.741 81.5688 460.815 81.5688C463.666 81.5688 466.129 80.4018 468.333 78.1974L470.537 80.1424C467.815 83.2544 464.574 84.8104 460.685 84.8104ZM452.389 70.9361H467.685C467.426 68.6021 466.648 66.7868 465.352 65.2308C464.055 63.6748 462.241 62.8968 460.037 62.8968C457.963 62.8968 456.278 63.6748 454.852 65.1011C453.426 66.6571 452.648 68.6021 452.389 70.9361ZM453.815 56.9321V52.5234H457.963V56.9321H453.815ZM461.852 56.9321V52.5234H466V56.9321H461.852Z" fill="#25458F"/>
<path d="M477.407 84.1621V60.4331H480.907V70.6768H494.648V60.4331H498.148V84.1621H494.648V73.7888H480.907V84.1621H477.407Z" fill="#25458F"/>
<path d="M506.056 84.1621V60.4331H509.556V74.1778L522.519 60.4331H526.926L516.945 70.6768L527.185 84.1621H523.037L514.611 73.2701L509.556 78.4568V84.1621H506.056V84.1621Z" fill="#25458F"/>
<path d="M539.241 84.6809C536.778 84.6809 534.704 84.0326 533.018 82.7359C531.333 81.4392 530.426 79.6239 530.426 77.1602C530.426 74.6966 531.333 72.7516 533.148 71.4549C534.963 70.1582 537.426 69.3802 540.537 69.3802C543 69.3802 545.463 69.7692 547.796 70.4176V69.6396C547.796 67.5649 547.148 66.0089 545.981 64.8419C544.815 63.6749 543 63.1562 540.796 63.1562C538.463 63.1562 536.129 63.6749 533.537 64.8419L532.5 61.9892C535.481 60.6926 538.333 59.9146 541.185 59.9146C544.555 59.9146 547.148 60.8222 548.833 62.5079C550.518 64.1936 551.296 66.5276 551.296 69.5099V84.0326H547.796V80.5316C545.592 83.3842 542.87 84.6809 539.241 84.6809ZM539.889 81.8282C542.092 81.8282 543.907 81.1799 545.463 80.0129C547.018 78.8459 547.796 77.2899 547.796 75.4746V73.2702C545.463 72.6219 543.129 72.2329 540.926 72.2329C538.722 72.2329 537.037 72.6219 535.87 73.5296C534.704 74.4372 534.055 75.6042 534.055 77.0305C534.055 78.4569 534.574 79.6239 535.741 80.5316C536.778 81.4392 538.204 81.8282 539.889 81.8282Z" fill="#25458F"/>
<path d="M1.92578 134.992V111.263H13.4628C15.7961 111.263 17.7406 111.781 19.1665 112.819C20.5924 113.856 21.2406 115.282 21.2406 117.098C21.2406 119.691 19.9443 121.506 17.3517 122.544C20.8517 123.451 22.5369 125.396 22.5369 128.379C22.5369 130.324 21.7591 132.009 20.2036 133.047C18.648 134.214 16.5739 134.732 13.8517 134.732H1.92578V134.992ZM5.42578 121.377H12.685C14.111 121.377 15.2776 120.988 16.185 120.339C17.0924 119.691 17.4813 118.783 17.4813 117.487C17.4813 116.449 17.0924 115.671 16.185 115.023C15.4073 114.375 14.2406 114.115 12.685 114.115H5.29615V121.377H5.42578ZM5.42578 131.88H13.3332C15.0184 131.88 16.3147 131.491 17.3517 130.842C18.3887 130.194 18.7776 129.157 18.7776 127.86C18.7776 126.693 18.2591 125.785 17.2221 125.137C16.185 124.489 14.7591 124.229 12.8147 124.229H5.42578V131.88V131.88Z" fill="#25458F"/>
<path d="M42.6299 134.992V111.263H46.1299V125.007L59.0928 111.263H63.5003L53.5188 121.506L63.7595 134.992H59.6114L51.1854 124.1L46.1299 129.286V134.992H42.6299Z" fill="#25458F"/>
<path d="M67.5188 135.251C66.6114 135.251 65.704 135.121 64.667 134.862L65.0559 131.879C65.704 132.139 66.3522 132.139 66.7411 132.139C67.3892 132.139 67.9077 132.009 68.4263 131.879C68.8151 131.75 69.3337 131.231 69.8522 130.583C70.3707 129.805 70.7596 128.897 71.0188 127.471C71.2781 126.174 71.5374 124.229 71.667 121.895C71.9263 119.431 71.9263 116.579 71.9263 113.078V111.133H88.7781V134.862H85.2781V114.245H75.2966V114.763C75.2966 118.394 75.167 121.506 74.9077 123.97C74.6485 126.563 74.2596 128.508 73.8707 129.934C73.4818 131.361 72.8337 132.528 72.1855 133.306C71.4077 134.084 70.7596 134.602 70.1114 134.862C69.3337 135.251 68.5559 135.251 67.5188 135.251Z" fill="#25458F"/>
<path d="M96.6846 134.992V111.263H100.185V130.064L114.314 111.263H117.814V134.992H114.314V116.19L100.185 134.992H96.6846Z" fill="#25458F"/>
<path d="M125.722 134.992V111.263H129.222V121.506H142.962V111.263H146.462V134.992H142.962V124.618H129.222V134.992H125.722Z" fill="#25458F"/>
<path d="M154.37 134.992V111.263H157.87V130.064L172 111.263H175.5V134.992H172V116.19L157.87 134.992H154.37Z" fill="#25458F"/>
<path d="M183.277 134.992V111.263H186.777V125.007L199.74 111.263H204.148L194.166 121.506L204.407 134.992H200.259L191.833 124.1L186.777 129.286V134.992H183.277Z" fill="#25458F"/>
<path d="M219.704 135.51C216.333 135.51 213.611 134.343 211.278 132.009C208.944 129.675 207.907 126.693 207.907 123.062C207.907 119.561 208.944 116.709 211.148 114.245C213.352 111.781 216.074 110.614 219.315 110.614C222.685 110.614 225.407 111.781 227.352 114.245C229.296 116.579 230.333 119.691 230.333 123.192C230.333 123.711 230.333 124.1 230.333 124.489H211.537C211.796 126.952 212.704 128.768 214.259 130.194C215.815 131.62 217.759 132.269 219.833 132.269C222.685 132.269 225.148 131.102 227.352 128.897L229.555 130.842C226.833 133.954 223.592 135.51 219.704 135.51ZM211.537 121.636H226.833C226.574 119.302 225.796 117.487 224.5 115.931C223.204 114.375 221.389 113.597 219.185 113.597C217.111 113.597 215.426 114.375 214 115.801C212.574 117.487 211.796 119.302 211.537 121.636Z" fill="#25458F"/>
<path d="M21.6296 196.583C19.2963 199.047 16.3148 200.214 12.8148 200.214C9.31481 200.214 6.33333 199.047 4 196.583C1.66666 194.12 0.5 191.267 0.5 187.766C0.5 184.395 1.66666 181.412 4 179.078C6.33333 176.744 9.31481 175.448 12.8148 175.448C16.3148 175.448 19.2963 176.615 21.6296 179.078C23.963 181.542 25.1296 184.394 25.1296 187.896C25.2593 191.137 24.0926 194.12 21.6296 196.583ZM12.9444 196.972C15.537 196.972 17.6111 196.065 19.1667 194.249C20.8519 192.434 21.6296 190.23 21.6296 187.636C21.6296 185.043 20.7222 182.839 19.037 181.023C17.3518 179.208 15.2778 178.3 12.8148 178.3C10.2222 178.3 8.14814 179.208 6.59259 181.023C4.9074 182.839 4.12962 185.043 4.12962 187.636C4.12962 190.23 4.9074 192.434 6.59259 194.12C8.27777 196.065 10.3518 196.972 12.9444 196.972Z" fill="#25458F"/>
<path d="M37.3153 199.565V178.948H28.7598V175.836H49.3709V178.948H40.8153V199.565H37.3153Z" fill="#25458F"/>
<path d="M93.3148 190.359C85.6666 191.267 79.1851 184.913 80.2222 177.263C80.8703 172.076 85.1481 167.797 90.3333 167.149C97.9814 166.241 104.463 172.595 103.426 180.245C102.778 185.562 98.4999 189.711 93.3148 190.359ZM94.0925 156.905C80.2222 155.479 68.6851 167.149 69.9814 181.023C71.0185 191.267 79.3148 199.565 89.5555 200.603C103.426 202.029 114.963 190.359 113.667 176.485C112.63 166.241 104.333 157.943 94.0925 156.905Z" fill="#005BFF"/>
<path d="M125.333 157.813C122.222 157.813 119.629 160.665 120.277 164.037C120.796 166.5 123 168.056 125.463 168.056H139.722L117.555 197.361C116.777 198.269 117.555 199.695 118.722 199.695H153.592C156.055 199.695 158.259 198.009 158.777 195.675C159.426 192.434 156.963 189.451 153.722 189.451H136.352L158.518 160.147C159.296 159.239 158.518 157.813 157.352 157.813H125.333Z" fill="#005BFF"/>
<path d="M264.685 157.942C262.352 158.461 260.667 160.665 260.667 163.129V180.115L232.926 158.202C232.019 157.424 230.593 158.072 230.593 159.369V194.508C230.593 196.972 232.278 199.176 234.611 199.695C237.982 200.343 240.834 197.88 240.834 194.638V177.392L268.574 199.306C269.482 200.084 270.908 199.436 270.908 198.139V162.87C270.908 159.758 268.056 157.164 264.685 157.942Z" fill="#005BFF"/>
<path d="M192.611 156.775C175.629 156.775 161.889 166.63 161.889 178.689C161.889 190.748 175.629 200.603 192.611 200.603C209.592 200.603 223.333 190.748 223.333 178.689C223.333 166.63 209.592 156.775 192.611 156.775ZM192.611 167.019C204.278 167.019 213.092 173.243 213.092 178.689C213.092 184.135 204.278 190.359 192.611 190.359C180.944 190.359 172.129 184.135 172.129 178.689C172.129 173.243 180.944 167.019 192.611 167.019Z" fill="#005BFF"/>
</svg>
