<svg width="45" height="47" viewBox="0 0 45 47" fill="none" xmlns="http://www.w3.org/2000/svg">
<g clip-path="url(#clip0)">
<path d="M10.246 33.9968L6.78467 42.6859L12.7932 42.3081L16.7846 46.9931L20.2326 38.3379C16.4839 37.8821 13.0534 36.3291 10.246 33.9968Z" fill="#25458F"/>
<path d="M24.8416 38.3379L28.2892 46.9931L32.281 42.3081L38.2895 42.6859L34.8281 33.9968C32.0208 36.3291 28.5903 37.8821 24.8416 38.3379Z" fill="#25458F"/>
<path d="M22.5372 35.7372C31.9594 35.7372 39.6251 27.7664 39.6251 17.9689C39.6251 8.17142 31.9594 0.200317 22.5372 0.200317C13.1154 0.200317 5.44971 8.17142 5.44971 17.9686C5.44971 27.7661 13.1154 35.7372 22.5372 35.7372ZM22.5372 4.77099C29.5359 4.77099 35.2295 10.6915 35.2295 17.9689C35.2295 25.246 29.5359 31.1665 22.5372 31.1665C15.5389 31.1665 9.84527 25.246 9.84527 17.9686C9.84527 10.6915 15.5389 4.77099 22.5372 4.77099Z" fill="#25458F"/>
<path d="M15.3147 24.9084C17.9094 23.3778 20.0374 21.6884 21.6987 19.8404C23.36 17.9924 24.1907 16.2098 24.1907 14.4924C24.1907 13.5778 23.9014 12.8498 23.3227 12.3084C22.7627 11.7484 21.9694 11.4684 20.9427 11.4684C19.972 11.4684 19.1507 11.6551 18.4787 12.0284C17.8254 12.3831 17.1814 12.8498 16.5467 13.4284L15.4827 11.8884C15.856 11.4218 16.388 10.9458 17.0787 10.4604C17.788 9.97511 18.6094 9.57377 19.5427 9.25644C20.476 8.92044 21.4187 8.75244 22.3707 8.75244C23.7334 8.75244 24.872 8.98577 25.7867 9.45244C26.72 9.91911 27.4107 10.5351 27.8587 11.3004C28.3067 12.0658 28.5307 12.9151 28.5307 13.8484C28.5307 15.6404 27.672 17.4418 25.9547 19.2524C24.2374 21.0631 22.0534 22.7244 19.4027 24.2364L27.5227 23.4804L28.5867 21.1284L30.3507 21.4924L29.5387 26.4204H15.9027L15.3147 24.9084Z" fill="#25458F"/>
</g>
<defs>
<clipPath id="clip0">
<rect width="45" height="46.7927" fill="white" transform="translate(0.000488281 0.200317)"/>
</clipPath>
</defs>
</svg>
