<svg width="45" height="48" viewBox="0 0 45 48" fill="none" xmlns="http://www.w3.org/2000/svg">
<g clip-path="url(#clip0)">
<path d="M10.246 34.7018L6.78467 43.3909L12.7932 43.0132L16.7846 47.6981L20.2326 39.043C16.4839 38.5871 13.0534 37.0341 10.246 34.7018Z" fill="#25458F"/>
<path d="M24.8416 39.043L28.2892 47.6981L32.281 43.0132L38.2895 43.3909L34.8281 34.7018C32.0208 37.0341 28.5903 38.5871 24.8416 39.043Z" fill="#25458F"/>
<path d="M22.5372 36.4422C31.9594 36.4422 39.6251 28.4715 39.6251 18.6739C39.6251 8.87639 31.9594 0.905273 22.5372 0.905273C13.1154 0.905273 5.44971 8.87639 5.44971 18.6736C5.44971 28.4711 13.1154 36.4422 22.5372 36.4422ZM22.5372 5.47596C29.5359 5.47596 35.2295 11.3965 35.2295 18.6739C35.2295 25.951 29.5359 31.8715 22.5372 31.8715C15.5389 31.8715 9.84527 25.951 9.84527 18.6736C9.84527 11.3965 15.5389 5.47596 22.5372 5.47596Z" fill="#25458F"/>
<path d="M19.7326 30.0456C19.1912 30.0456 18.5939 29.999 17.9406 29.9056C17.3059 29.831 16.7832 29.7376 16.3726 29.6256V27.5536C17.1566 27.7963 17.9966 27.9176 18.8926 27.9176C20.1992 27.9176 21.3286 27.703 22.2806 27.2736C23.2512 26.8443 23.9886 26.2656 24.4926 25.5376C24.9966 24.8096 25.2486 24.007 25.2486 23.1296C25.2486 21.935 24.8939 21.011 24.1846 20.3576C23.4752 19.7043 22.4206 19.359 21.0206 19.3216L19.3406 19.7416L18.7526 18.0336C19.5179 17.903 20.2739 17.6696 21.0206 17.3336C22.1032 16.8483 22.9432 16.2416 23.5406 15.5136C24.1379 14.767 24.4366 13.9736 24.4366 13.1336C24.4366 12.2003 24.1472 11.519 23.5686 11.0896C23.0086 10.6603 22.2899 10.4456 21.4126 10.4456C20.5912 10.4456 19.8166 10.5856 19.0886 10.8656C18.3792 11.1456 17.7726 11.491 17.2686 11.9016L16.2886 10.1936C16.8299 9.67098 17.7072 9.15764 18.9206 8.65364C20.1526 8.14964 21.4032 7.89764 22.6726 7.89764C24.4459 7.89764 25.8832 8.28031 26.9846 9.04564C28.1046 9.79231 28.6646 10.931 28.6646 12.4616C28.6646 13.8056 28.1419 14.991 27.0966 16.0176C26.0512 17.0443 24.7726 17.8283 23.2606 18.3696C23.4472 18.351 23.7272 18.3416 24.1006 18.3416C25.7619 18.3416 27.1059 18.7616 28.1326 19.6016C29.1779 20.4416 29.7006 21.5616 29.7006 22.9616C29.7192 24.3056 29.3179 25.5096 28.4966 26.5736C27.6939 27.6563 26.5366 28.5056 25.0246 29.1216C23.5126 29.7376 21.7486 30.0456 19.7326 30.0456Z" fill="#25458F"/>
</g>
<defs>
<clipPath id="clip0">
<rect width="45" height="46.7928" fill="white" transform="translate(0.000488281 0.905273)"/>
</clipPath>
</defs>
</svg>
